{"glyphs":{"0":{"ha":1032,"x_min":97,"x_max":935,"o":"m 515 972 q 726 907 629 972 q 878 730 822 842 q 935 486 935 618 q 878 242 935 354 q 726 65 822 131 q 515 0 629 0 q 353 38 431 0 q 219 142 275 76 q 131 297 164 207 q 97 486 97 388 q 131 675 97 585 q 219 831 164 765 q 353 934 275 896 q 515 972 431 972 m 320 242 q 361 192 320 242 q 516 142 401 142 q 712 242 631 142 q 793 486 793 343 q 712 730 793 629 q 515 831 631 831 q 376 785 440 831 q 276 659 313 739 q 239 486 239 579 q 320 242 239 343 z "},"1":{"ha":593,"x_min":74,"x_max":485,"o":"m 485 701 l 485 0 l 343 0 l 343 701 q 305 793 343 756 q 214 831 267 831 l 75 831 l 75 972 l 214 972 q 405 893 325 972 q 485 701 485 814 z "},"2":{"ha":965,"x_min":101,"x_max":871,"o":"m 568 415 l 400 415 q 285 375 326 415 q 244 278 244 335 l 244 142 l 865 142 l 865 0 l 103 0 l 103 278 q 133 413 101 351 q 233 515 164 474 q 400 557 303 557 l 568 557 q 643 572 610 557 q 694 611 676 588 q 719 665 711 635 q 719 724 728 694 q 694 776 711 753 q 643 815 676 800 q 568 831 610 831 l 103 831 l 103 972 l 588 972 q 762 915 689 972 q 853 776 835 857 q 854 613 871 694 q 760 473 838 531 q 568 415 683 415 z "},"3":{"ha":883,"x_min":90,"x_max":779,"o":"m 332 557 l 481 557 q 542 568 513 557 q 592 597 571 579 q 625 641 613 615 q 638 694 638 667 q 592 790 638 750 q 481 831 546 831 l 90 831 l 90 972 l 500 972 q 697 890 615 972 q 779 694 779 808 q 644 486 779 543 q 779 278 779 429 q 697 82 779 164 q 500 0 615 0 l 90 0 l 90 142 l 481 142 q 592 182 546 142 q 638 278 638 222 q 592 375 638 335 q 481 415 546 415 l 304 415 l 304 557 l 332 557 z "},"4":{"ha":951,"x_min":88,"x_max":856,"o":"m 265 475 l 854 475 l 854 0 l 713 0 l 713 333 l 88 333 l 249 972 l 390 972 l 265 475 z "},"5":{"ha":965,"x_min":101,"x_max":871,"o":"m 568 557 q 760 499 683 557 q 854 360 838 442 q 853 197 871 278 q 762 58 835 115 q 588 0 689 0 l 103 0 l 103 142 l 568 142 q 643 157 610 142 q 694 196 676 172 q 719 249 711 219 q 719 308 728 278 q 694 361 711 338 q 643 400 676 385 q 568 415 610 415 l 400 415 q 233 457 303 415 q 133 560 164 499 q 103 694 101 621 l 103 972 l 865 972 l 865 831 l 244 831 l 244 694 q 285 597 244 638 q 400 557 326 557 l 568 557 z "},"6":{"ha":994,"x_min":106,"x_max":901,"o":"m 597 628 q 791 563 714 628 q 884 406 868 499 q 882 222 900 314 q 792 65 864 129 q 617 0 719 0 l 383 0 q 285 17 331 0 q 208 65 240 35 q 153 135 176 96 q 117 221 129 175 q 106 314 106 267 l 106 694 q 122 795 106 747 q 173 884 139 843 q 266 949 207 925 q 403 972 325 972 l 833 972 l 833 831 l 403 831 q 288 790 329 831 q 247 694 247 750 l 247 314 q 288 193 247 244 q 403 142 329 142 l 597 142 q 665 156 635 142 q 714 195 696 171 q 742 251 732 219 q 753 314 753 282 q 742 377 753 346 q 714 433 732 408 q 665 472 696 457 q 597 486 635 486 l 354 486 l 354 628 l 597 628 z "},"7":{"ha":886,"x_min":76,"x_max":803,"o":"m 803 831 l 393 0 l 235 0 l 644 831 l 76 831 l 76 972 l 803 972 l 803 831 z "},"8":{"ha":996,"x_min":96,"x_max":899,"o":"m 746 485 q 840 410 804 458 q 887 310 876 363 q 884 201 897 257 q 838 101 871 146 q 746 28 804 57 q 614 0 688 0 l 381 0 q 249 28 307 0 q 157 101 190 57 q 110 201 124 146 q 108 310 97 257 q 154 410 118 363 q 249 485 190 458 q 157 558 193 511 q 109 659 121 606 q 109 769 97 713 q 154 870 121 825 q 251 944 188 915 q 400 972 315 972 l 594 972 q 725 951 667 972 q 817 894 783 929 q 872 814 851 858 q 892 722 893 769 q 876 628 890 674 q 827 545 861 583 q 746 485 793 507 m 400 831 q 324 815 357 831 q 273 776 290 800 q 248 724 256 753 q 248 665 240 694 q 273 611 256 635 q 324 572 290 588 q 400 557 357 557 l 594 557 q 671 572 638 557 q 722 611 704 588 q 747 665 739 635 q 747 724 754 694 q 722 776 739 753 q 671 815 704 800 q 594 831 638 831 l 400 831 m 594 142 q 671 157 638 142 q 722 196 704 172 q 747 249 739 219 q 747 308 754 278 q 722 361 739 338 q 671 400 704 385 q 594 415 638 415 l 400 415 q 324 400 357 415 q 273 361 290 385 q 248 308 256 338 q 248 249 240 278 q 273 196 256 219 q 324 157 290 172 q 400 142 357 142 l 594 142 z "},"9":{"ha":994,"x_min":92,"x_max":889,"o":"m 396 344 q 202 409 279 344 q 109 566 125 474 q 111 751 93 658 q 201 908 129 843 q 376 972 274 972 l 610 972 q 760 926 696 972 q 856 809 825 879 q 888 658 886 739 l 888 278 q 871 177 888 225 q 820 89 854 129 q 727 24 786 49 q 590 0 668 0 l 160 0 l 160 142 l 590 142 q 705 182 664 142 q 746 278 746 222 l 746 658 q 705 779 746 728 q 590 831 664 831 l 396 831 q 319 812 353 831 q 269 763 286 793 q 244 695 251 732 q 244 622 236 658 q 269 554 251 585 q 319 505 286 524 q 396 486 353 486 l 639 486 l 639 344 l 396 344 z "},"\u0000":{"ha":0,"x_min":0,"x_max":0,"o":""},"\n":{"ha":0,"x_min":0,"x_max":0,"o":""},"\r":{"ha":0,"x_min":0,"x_max":0,"o":""}," ":{"ha":468,"x_min":0,"x_max":0,"o":""},"!":{"ha":358,"x_min":108,"x_max":250,"o":"m 250 0 l 108 0 l 108 142 l 250 142 l 250 0 m 250 238 l 108 238 l 108 972 l 250 972 l 250 238 z "},"\"":{"ha":522,"x_min":76,"x_max":446,"o":"m 76 831 l 76 972 l 218 972 l 218 815 q 194 760 218 785 q 121 735 169 735 l 76 735 l 76 782 l 121 782 q 143 784 133 782 q 159 791 153 786 q 169 802 165 796 q 172 815 172 808 l 172 831 l 76 831 m 304 972 l 446 972 l 446 815 q 422 760 446 785 q 349 735 397 735 l 304 735 l 304 782 l 349 782 q 387 791 374 782 q 400 815 400 800 l 400 831 l 304 831 l 304 972 z "},"”":{"ha":522,"x_min":76,"x_max":446,"o":"m 76 831 l 76 972 l 218 972 l 218 815 q 194 760 218 785 q 121 735 169 735 l 76 735 l 76 782 l 121 782 q 143 784 133 782 q 159 791 153 786 q 169 802 165 796 q 172 815 172 808 l 172 831 l 76 831 m 304 972 l 446 972 l 446 815 q 422 760 446 785 q 349 735 397 735 l 304 735 l 304 782 l 349 782 q 387 791 374 782 q 400 815 400 800 l 400 831 l 304 831 l 304 972 z "},"#":{"ha":1238,"x_min":96,"x_max":1140,"o":"m 1139 556 l 928 556 l 881 382 l 1139 382 l 1139 240 l 843 240 l 774 -17 l 628 -17 l 696 240 l 418 240 l 349 -17 l 201 -17 l 271 240 l 97 240 l 97 382 l 308 382 l 356 556 l 97 556 l 97 697 l 393 697 l 463 956 l 608 956 l 540 697 l 819 697 l 888 956 l 1035 956 l 965 697 l 1139 697 l 1139 556 m 735 382 l 781 556 l 501 556 l 456 382 l 735 382 z "},"$":{"ha":963,"x_min":93,"x_max":868,"o":"m 692 831 l 551 831 l 551 557 l 565 557 q 758 499 681 557 q 851 360 835 442 q 850 196 868 278 q 759 57 832 114 q 585 0 686 0 l 551 0 l 551 -210 l 410 -210 l 410 0 l 100 0 l 100 142 l 410 142 l 410 415 l 397 415 q 203 472 281 415 q 110 611 126 529 q 113 775 94 693 q 203 915 131 857 q 378 972 275 972 l 410 972 l 410 1182 l 551 1182 l 551 972 l 863 972 l 863 831 l 692 831 m 410 557 l 410 831 l 397 831 q 329 819 360 831 q 281 788 299 807 q 252 744 263 768 q 242 694 242 719 q 252 643 242 668 q 281 599 263 618 q 329 569 299 581 q 397 557 360 557 l 410 557 m 565 415 l 551 415 l 551 142 l 565 142 q 641 156 607 142 q 692 195 675 171 q 717 249 708 219 q 717 307 725 278 q 692 360 708 336 q 641 400 675 385 q 565 415 607 415 z "},"%":{"ha":1190,"x_min":89,"x_max":1101,"o":"m 507 729 q 479 607 507 663 q 403 519 451 551 q 299 486 356 486 q 150 557 211 486 q 89 728 89 628 q 150 901 89 829 q 298 972 211 972 q 446 901 385 972 q 507 729 507 829 m 200 607 q 220 582 200 607 q 298 557 240 557 q 396 607 356 557 q 436 728 436 657 q 396 851 436 800 q 298 901 356 901 q 200 851 240 901 q 160 728 160 800 q 200 607 160 657 m 892 486 q 1039 415 978 486 q 1100 243 1100 343 q 1072 121 1100 176 q 997 33 1044 65 q 892 0 949 0 q 743 71 804 0 q 682 243 682 142 q 710 365 682 308 q 786 453 738 421 q 892 486 835 486 m 793 121 q 813 96 793 121 q 891 71 833 71 q 990 121 949 71 q 1031 242 1031 171 q 990 365 1031 314 q 892 415 949 415 q 822 392 854 415 q 772 330 790 369 q 753 243 753 290 q 793 121 753 171 m 651 972 l 799 972 l 538 0 l 392 0 l 651 972 z "},"&":{"ha":989,"x_min":96,"x_max":892,"o":"m 892 557 l 892 415 l 774 415 l 774 142 l 892 142 l 892 0 l 381 0 q 249 28 307 0 q 157 101 190 57 q 110 201 124 146 q 108 310 97 257 q 154 410 118 363 q 249 485 190 457 q 157 557 193 510 q 109 658 121 604 q 109 769 97 713 q 154 869 121 825 q 251 943 188 914 q 400 972 315 972 l 774 972 l 774 831 l 400 831 q 324 815 357 831 q 273 776 290 800 q 248 722 256 751 q 248 664 240 693 q 273 611 256 635 q 324 572 290 588 q 400 557 357 557 l 632 557 l 632 700 l 774 700 l 774 557 l 892 557 m 632 142 l 632 415 l 400 415 q 324 400 357 415 q 273 360 290 385 q 248 307 256 336 q 248 249 240 278 q 273 195 256 219 q 324 156 290 171 q 400 142 357 142 l 632 142 z "},"'":{"ha":294,"x_min":76,"x_max":218,"o":"m 76 972 l 218 972 l 218 815 q 194 760 218 785 q 121 735 169 735 l 76 735 l 76 782 l 121 782 q 159 791 146 782 q 172 815 172 800 l 172 831 l 76 831 l 76 972 z "},"’":{"ha":294,"x_min":76,"x_max":218,"o":"m 76 972 l 218 972 l 218 815 q 194 760 218 785 q 121 735 169 735 l 76 735 l 76 782 l 121 782 q 159 791 146 782 q 172 815 172 800 l 172 831 l 76 831 l 76 972 z "},"(":{"ha":478,"x_min":104,"x_max":464,"o":"m 463 1031 q 356 932 403 1000 q 285 776 310 864 q 249 588 260 688 q 249 387 239 488 q 285 198 260 286 q 356 41 310 110 q 463 -60 403 -28 l 463 -210 q 264 -68 347 -176 q 143 182 181 40 q 106 485 106 324 q 143 789 106 647 q 264 1039 181 931 q 463 1182 347 1147 l 463 1031 z "},")":{"ha":478,"x_min":14,"x_max":372,"o":"m 14 1182 q 213 1039 129 1147 q 333 789 296 931 q 371 485 371 647 q 333 182 371 324 q 213 -68 296 40 q 14 -210 129 -176 l 14 -60 q 134 65 83 -22 q 208 258 185 151 q 231 487 231 365 q 208 716 231 608 q 134 909 185 824 q 14 1031 83 994 l 14 1182 z "},"*":{"ha":760,"x_min":86,"x_max":672,"o":"m 672 763 l 481 675 l 672 589 l 601 465 l 431 588 l 450 379 l 308 379 l 329 588 l 158 465 l 88 589 l 279 675 l 88 763 l 158 885 l 329 763 l 308 972 l 450 972 l 431 763 l 601 885 l 672 763 z "},"+":{"ha":919,"x_min":83,"x_max":836,"o":"m 531 557 l 836 557 l 836 415 l 531 415 l 531 110 l 389 110 l 389 415 l 83 415 l 83 557 l 389 557 l 389 863 l 531 863 l 531 557 z "},",":{"ha":278,"x_min":68,"x_max":210,"o":"m 68 142 l 210 142 l 210 -15 q 185 -71 210 -46 q 113 -96 161 -96 l 68 -96 l 68 -49 l 113 -49 q 151 -40 138 -49 q 164 -15 164 -31 l 164 0 l 68 0 l 68 142 z "},"-":{"ha":756,"x_min":68,"x_max":688,"o":"m 688 415 l 68 415 l 68 557 l 688 557 l 688 415 z "},".":{"ha":278,"x_min":68,"x_max":210,"o":"m 210 0 l 68 0 l 68 142 l 210 142 l 210 0 z "},"/":{"ha":574,"x_min":83,"x_max":492,"o":"m 344 972 l 490 972 l 229 0 l 83 0 l 344 972 z "},":":{"ha":306,"x_min":82,"x_max":224,"o":"m 224 0 l 82 0 l 82 142 l 224 142 l 224 0 m 224 415 l 82 415 l 82 557 l 224 557 l 224 415 z "},";":{"ha":306,"x_min":82,"x_max":224,"o":"m 82 0 l 82 142 l 224 142 l 224 -15 q 199 -71 224 -46 q 126 -96 175 -96 l 82 -96 l 82 -49 l 126 -49 q 155 -44 143 -49 q 172 -33 167 -40 q 178 -15 178 -25 l 178 0 l 82 0 m 224 415 l 82 415 l 82 557 l 224 557 l 224 415 z "},"<":{"ha":1063,"x_min":85,"x_max":971,"o":"m 969 863 l 969 715 l 293 486 l 969 257 l 969 110 l 85 410 l 85 561 l 969 863 z "},"=":{"ha":874,"x_min":81,"x_max":793,"o":"m 792 274 l 81 274 l 81 415 l 792 415 l 792 274 m 792 557 l 81 557 l 81 699 l 792 699 l 792 557 z "},">":{"ha":1063,"x_min":92,"x_max":978,"o":"m 92 863 l 976 561 l 976 410 l 92 110 l 92 257 l 768 486 l 92 715 l 92 863 z "},"?":{"ha":763,"x_min":79,"x_max":674,"o":"m 389 0 l 247 0 l 247 142 l 389 142 l 389 0 m 393 972 q 500 953 451 972 q 581 903 549 935 q 637 831 614 872 q 666 744 660 790 q 669 653 672 699 q 643 565 665 607 q 589 491 621 524 q 505 438 557 458 q 389 415 453 418 l 389 238 l 247 238 l 247 557 l 375 557 q 460 577 424 557 q 513 628 496 597 q 529 694 529 658 q 513 760 529 729 q 460 810 496 790 q 374 831 424 831 l 79 831 l 79 972 l 393 972 z "},"@":{"ha":1376,"x_min":97,"x_max":1281,"o":"m 1279 381 q 1278 332 1279 357 q 1242 206 1269 260 q 1174 126 1214 151 q 1089 90 1135 100 q 999 94 1043 79 q 919 138 956 110 q 860 218 882 167 q 838 332 838 269 l 838 563 l 649 563 q 574 547 607 563 q 520 506 540 531 q 489 448 500 481 q 478 381 478 415 q 489 315 478 347 q 520 256 500 282 q 574 215 540 231 q 649 199 607 199 l 740 199 l 740 85 l 643 85 q 521 110 575 85 q 433 178 467 136 q 381 272 400 219 q 363 381 363 325 q 381 490 363 436 q 433 584 400 543 q 521 651 467 625 q 643 676 575 676 l 951 676 l 951 332 q 970 254 951 288 q 1017 209 989 221 q 1074 201 1044 197 q 1128 240 1103 206 q 1163 332 1153 275 q 1165 381 1165 356 q 1101 621 1165 511 q 928 794 1038 731 q 688 858 818 858 q 449 794 558 858 q 275 621 339 731 q 211 381 211 511 q 275 142 211 251 q 449 -32 339 32 q 689 -96 558 -96 l 1058 -96 l 1058 -210 l 689 -210 q 392 -131 528 -210 q 176 85 256 -51 q 97 381 97 221 q 176 678 97 542 q 392 893 256 814 q 688 972 528 972 q 985 893 849 972 q 1200 678 1121 814 q 1279 381 1279 542 z "},"A":{"ha":965,"x_min":89,"x_max":854,"o":"m 526 972 l 854 972 l 854 0 l 713 0 l 713 415 l 351 415 l 351 557 l 713 557 l 713 831 l 526 831 q 310 733 389 831 q 231 486 231 635 l 231 0 l 89 0 l 89 486 q 142 731 89 621 q 295 906 194 840 q 526 972 396 972 z "},"B":{"ha":943,"x_min":97,"x_max":860,"o":"m 413 415 l 413 557 l 561 557 q 671 597 625 557 q 717 694 717 638 q 671 790 717 750 q 561 831 625 831 l 97 831 l 97 972 l 581 972 q 777 890 696 972 q 858 694 858 808 q 725 486 858 543 q 858 278 858 429 q 777 82 858 164 q 581 0 696 0 l 97 0 l 97 557 l 239 557 l 239 142 l 561 142 q 671 182 625 142 q 717 278 717 222 q 671 375 717 335 q 561 415 625 415 l 413 415 z "},"C":{"ha":939,"x_min":63,"x_max":893,"o":"m 549 972 q 736 935 647 972 q 892 829 825 897 l 792 729 q 549 831 692 831 q 305 730 406 831 q 204 486 204 629 q 305 242 204 343 q 549 142 406 142 q 792 243 692 142 l 892 143 q 736 38 825 75 q 549 0 647 0 q 305 65 417 0 q 128 242 193 131 q 63 486 63 354 q 128 730 63 618 q 305 907 193 842 q 549 972 417 972 z "},"Ç":{"ha":939,"x_min":63,"x_max":893,"o":"m 549 972 q 736 935 647 972 q 892 829 825 897 l 792 729 q 549 831 692 831 q 305 730 406 831 q 204 486 204 629 q 305 242 204 343 q 549 142 406 142 q 792 243 692 142 l 892 143 q 736 38 825 75 q 549 0 647 0 q 305 65 417 0 q 128 242 193 131 q 63 486 63 354 q 128 730 63 618 q 305 907 193 842 q 549 972 417 972 z "},"D":{"ha":967,"x_min":96,"x_max":901,"o":"m 96 831 l 96 972 l 418 972 q 628 931 535 972 q 780 820 722 889 q 869 665 838 751 q 901 486 901 578 q 869 308 901 394 q 780 152 838 221 q 628 42 722 83 q 418 0 535 0 l 96 0 l 96 557 l 238 557 l 238 142 l 446 142 q 583 172 522 142 q 681 249 643 201 q 739 359 718 297 q 760 486 760 421 q 739 613 760 551 q 681 723 718 675 q 583 801 643 771 q 446 831 522 831 l 96 831 z "},"E":{"ha":874,"x_min":67,"x_max":792,"o":"m 504 142 l 790 142 l 790 0 l 504 0 q 273 66 374 0 q 119 242 172 132 q 67 486 67 351 q 119 731 67 621 q 273 906 172 840 q 504 972 374 972 l 790 972 l 790 831 l 504 831 q 288 733 367 831 q 208 486 208 635 q 288 240 208 338 q 504 142 367 142 m 329 557 l 790 557 l 790 415 l 329 415 l 329 557 z "},"F":{"ha":872,"x_min":89,"x_max":814,"o":"m 526 831 q 310 733 389 831 q 231 486 231 635 l 231 0 l 89 0 l 89 486 q 142 731 89 621 q 295 906 194 840 q 526 972 396 972 l 813 972 l 813 831 l 526 831 m 351 557 l 813 557 l 813 415 l 351 415 l 351 557 z "},"G":{"ha":1086,"x_min":61,"x_max":1035,"o":"m 886 415 l 549 415 l 549 557 l 1029 557 q 1035 486 1035 522 q 969 242 1035 354 q 792 65 904 131 q 549 0 681 0 q 305 65 417 0 q 128 242 193 131 q 63 486 63 354 q 128 730 63 618 q 305 907 193 842 q 549 972 417 972 q 736 935 647 972 q 892 831 825 897 l 792 729 q 549 831 692 831 q 305 730 406 831 q 204 486 204 629 q 305 242 204 343 q 549 142 406 142 q 767 219 672 142 q 886 415 861 297 z "},"H":{"ha":1050,"x_min":110,"x_max":940,"o":"m 110 0 l 110 972 l 251 972 l 251 557 l 676 557 l 676 415 l 251 415 l 251 0 l 110 0 m 797 0 l 797 972 l 939 972 l 939 0 l 797 0 z "},"I":{"ha":361,"x_min":110,"x_max":251,"o":"m 251 0 l 110 0 l 110 972 l 251 972 l 251 0 z "},"J":{"ha":744,"x_min":25,"x_max":647,"o":"m 300 0 l 25 0 l 25 142 l 300 142 q 451 211 397 144 q 506 367 506 278 l 506 972 l 647 972 l 647 367 q 625 232 647 297 q 560 115 603 167 q 451 31 518 63 q 300 0 383 0 z "},"K":{"ha":957,"x_min":110,"x_max":861,"o":"m 253 415 l 253 0 l 111 0 l 111 972 l 253 972 l 253 557 l 514 557 q 665 626 611 560 q 719 782 719 693 l 719 972 l 861 972 l 861 782 q 847 671 861 725 q 802 569 832 617 q 729 486 772 521 q 827 356 793 435 q 861 190 861 278 l 861 0 l 719 0 l 719 190 q 665 346 719 279 q 514 415 611 413 l 253 415 z "},"L":{"ha":842,"x_min":97,"x_max":817,"o":"m 443 0 q 292 31 360 0 q 183 115 225 63 q 119 232 142 167 q 97 367 97 297 l 97 972 l 239 972 l 239 367 q 293 211 239 278 q 443 142 347 144 l 817 142 l 817 0 l 443 0 z "},"M":{"ha":1167,"x_min":75,"x_max":1090,"o":"m 1003 972 l 1089 0 l 947 0 l 886 700 l 661 240 l 778 0 l 622 0 l 504 240 l 279 700 l 218 0 l 76 0 l 163 972 l 304 972 l 583 401 l 861 972 l 1003 972 z "},"N":{"ha":985,"x_min":93,"x_max":890,"o":"m 749 0 l 264 731 l 236 0 l 94 0 l 132 972 l 274 972 l 738 272 l 711 972 l 853 972 l 890 0 l 749 0 z "},"O":{"ha":1097,"x_min":63,"x_max":1035,"o":"m 305 913 q 361 945 305 913 q 549 978 417 978 q 792 913 681 978 q 969 736 904 849 q 1035 492 1035 624 q 969 248 1035 360 q 792 71 904 136 q 549 6 681 6 q 305 71 417 6 q 128 248 193 136 q 63 492 63 360 q 128 736 63 624 q 305 913 193 849 m 305 249 q 355 198 305 249 q 549 147 406 147 q 792 249 692 147 q 893 492 893 350 q 792 735 893 635 q 549 836 692 836 q 305 735 406 836 q 204 492 204 635 q 305 249 204 350 z "},"Ø":{"ha":1097,"x_min":63,"x_max":1035,"o":"m 305 913 q 361 945 305 913 q 549 978 417 978 q 792 913 681 978 q 969 736 904 849 q 1035 492 1035 624 q 969 248 1035 360 q 792 71 904 136 q 549 6 681 6 q 305 71 417 6 q 128 248 193 136 q 63 492 63 360 q 128 736 63 624 q 305 913 193 849 m 305 249 q 355 198 305 249 q 549 147 406 147 q 792 249 692 147 q 893 492 893 350 q 792 735 893 635 q 549 836 692 836 q 305 735 406 836 q 204 492 204 635 q 305 249 204 350 z "},"P":{"ha":918,"x_min":110,"x_max":871,"o":"m 572 415 l 374 415 l 374 557 l 572 557 q 651 575 615 557 q 708 625 686 593 q 729 694 729 657 q 683 790 729 750 q 572 831 638 831 l 253 831 l 253 0 l 111 0 l 111 972 l 592 972 q 789 890 707 972 q 871 694 871 808 q 785 492 871 569 q 572 415 699 415 z "},"Q":{"ha":1097,"x_min":63,"x_max":1035,"o":"m 478 -101 l 478 331 l 619 331 l 619 -101 l 478 -101 m 305 907 q 361 940 305 907 q 549 972 417 972 q 792 907 681 972 q 969 730 904 842 q 1035 486 1035 618 q 1009 331 1035 406 q 938 194 983 256 q 829 89 892 133 l 726 190 q 814 266 776 221 q 872 368 851 311 q 893 486 893 425 q 847 659 893 579 q 722 785 801 739 q 549 831 642 831 q 305 730 406 831 q 204 486 204 629 q 249 315 204 393 q 371 190 294 238 l 268 89 q 160 194 206 133 q 88 331 114 256 q 63 486 63 406 q 128 730 63 618 q 305 907 193 842 z "},"R":{"ha":967,"x_min":110,"x_max":874,"o":"m 872 278 l 872 0 l 731 0 l 731 278 q 685 375 731 335 q 575 415 639 415 l 374 415 l 374 557 l 575 557 q 653 575 617 557 q 710 625 689 593 q 731 694 731 657 q 685 790 731 750 q 575 831 639 831 l 253 831 l 253 0 l 111 0 l 111 972 l 594 972 q 791 890 710 972 q 872 694 872 808 q 739 486 872 543 q 872 278 872 429 z "},"S":{"ha":907,"x_min":65,"x_max":840,"o":"m 369 415 q 176 473 253 415 q 83 613 99 531 q 85 776 67 694 q 175 915 103 857 q 350 972 247 972 l 835 972 l 835 831 l 369 831 q 293 815 326 831 q 242 776 260 800 q 217 724 225 753 q 217 665 210 694 q 242 611 225 635 q 293 572 260 588 q 369 557 326 557 l 538 557 q 730 499 653 557 q 824 360 807 442 q 822 197 840 278 q 731 58 804 115 q 557 0 658 0 l 72 0 l 72 142 l 538 142 q 613 157 579 142 q 664 196 647 172 q 689 249 681 219 q 689 308 697 278 q 664 361 681 338 q 613 400 647 385 q 538 415 579 415 l 369 415 z "},"T":{"ha":757,"x_min":15,"x_max":742,"o":"m 742 831 l 15 831 l 15 972 l 742 972 l 742 831 m 307 0 l 307 710 l 449 710 l 449 0 l 307 0 z "},"U":{"ha":982,"x_min":96,"x_max":885,"o":"m 885 978 l 885 376 q 854 206 885 279 q 769 88 824 132 q 644 22 714 43 q 491 0 575 0 q 338 22 407 0 q 213 88 268 43 q 128 206 158 132 q 97 376 97 279 l 97 978 l 239 978 l 239 376 q 260 267 239 314 q 317 194 281 221 q 397 154 353 167 q 490 142 440 142 q 567 149 531 142 q 635 175 603 157 q 692 219 668 193 q 729 286 715 246 q 743 376 743 326 l 743 978 l 885 978 z "},"V":{"ha":943,"x_min":21,"x_max":922,"o":"m 186 978 l 471 224 l 757 978 l 922 978 l 554 6 l 389 6 l 21 978 l 186 978 z "},"W":{"ha":1356,"x_min":24,"x_max":1332,"o":"m 594 972 l 881 218 l 1167 972 l 1332 972 l 963 0 l 799 0 l 678 319 l 557 0 l 392 0 l 24 972 l 189 972 l 474 218 l 594 538 l 431 972 l 594 972 z "},"X":{"ha":976,"x_min":93,"x_max":882,"o":"m 583 403 q 561 409 583 403 q 488 415 539 415 q 394 403 438 415 q 314 363 350 390 q 257 290 278 336 q 236 181 236 243 l 236 0 l 94 0 l 94 181 q 232 486 94 389 q 94 792 94 583 l 94 972 l 236 972 l 236 792 q 257 683 236 729 q 314 609 278 636 q 394 569 350 582 q 488 557 438 557 q 564 565 528 557 q 633 590 600 572 q 689 635 665 608 q 726 701 713 661 q 740 792 740 742 l 740 972 l 882 972 l 882 792 q 744 486 882 583 q 882 181 882 389 l 882 0 l 740 0 l 740 181 q 719 290 740 243 q 663 363 699 336 q 583 403 626 390 z "},"Y":{"ha":888,"x_min":49,"x_max":838,"o":"m 514 419 l 514 0 l 374 0 l 374 419 q 138 530 226 438 q 50 792 50 622 l 50 972 l 192 972 l 192 792 q 213 683 192 729 q 269 609 233 636 q 349 569 306 582 q 444 557 393 557 q 538 569 494 557 q 618 609 582 582 q 675 683 654 636 q 696 792 696 729 l 696 972 l 838 972 l 838 792 q 749 530 838 622 q 514 419 661 438 z "},"Ý":{"ha":888,"x_min":49,"x_max":838,"o":"m 514 419 l 514 0 l 374 0 l 374 419 q 138 530 226 438 q 50 792 50 622 l 50 972 l 192 972 l 192 792 q 213 683 192 729 q 269 609 233 636 q 349 569 306 582 q 444 557 393 557 q 538 569 494 557 q 618 609 582 582 q 675 683 654 636 q 696 792 696 729 l 696 972 l 838 972 l 838 792 q 749 530 838 622 q 514 419 661 438 z "},"Ÿ":{"ha":888,"x_min":49,"x_max":838,"o":"m 514 419 l 514 0 l 374 0 l 374 419 q 138 530 226 438 q 50 792 50 622 l 50 972 l 192 972 l 192 792 q 213 683 192 729 q 269 609 233 636 q 349 569 306 582 q 444 557 393 557 q 538 569 494 557 q 618 609 582 582 q 675 683 654 636 q 696 792 696 729 l 696 972 l 838 972 l 838 792 q 749 530 838 622 q 514 419 661 438 z "},"Z":{"ha":871,"x_min":49,"x_max":789,"o":"m 789 831 q 699 430 789 607 q 461 142 610 253 l 789 142 l 789 0 l 49 0 l 49 142 q 260 192 154 142 q 453 331 367 243 q 593 551 539 419 q 647 831 647 683 l 49 831 l 49 972 l 789 972 l 789 831 z "},"[":{"ha":365,"x_min":111,"x_max":471,"o":"m 469 1040 l 253 1040 l 253 -68 l 469 -68 l 469 -210 l 111 -210 l 111 1182 l 469 1182 l 469 1040 z "},"\\":{"ha":574,"x_min":82,"x_max":490,"o":"m 228 972 l 489 0 l 343 0 l 82 972 l 228 972 z "},"]":{"ha":365,"x_min":-106,"x_max":254,"o":"m -106 1182 l 253 1182 l 253 -210 l -106 -210 l -106 -68 l 111 -68 l 111 1040 l -106 1040 l -106 1182 z "},"^":{"ha":649,"x_min":69,"x_max":579,"o":"m 397 972 l 579 640 l 432 640 l 324 838 l 215 640 l 69 640 l 251 972 l 397 972 z "},"_":{"ha":992,"x_min":67,"x_max":925,"o":"m 925 -17 l 67 -17 l 67 125 l 925 125 l 925 -17 z "},"`":{"ha":467,"x_min":67,"x_max":396,"o":"m 240 972 l 394 640 l 282 640 l 67 972 l 240 972 z "},"a":{"ha":897,"x_min":64,"x_max":797,"o":"m 796 0 l 411 0 q 260 31 328 0 q 151 115 193 63 q 88 233 110 167 q 65 367 65 299 q 88 502 65 436 q 151 619 110 568 q 260 702 193 671 q 411 733 328 733 l 533 733 l 533 593 l 419 593 q 315 568 361 593 q 246 503 269 543 q 211 415 222 463 q 211 319 200 367 q 246 231 222 271 q 315 167 269 192 q 419 142 361 142 l 654 142 l 654 733 l 796 733 l 796 390 l 796 0 z "},"b":{"ha":897,"x_min":100,"x_max":833,"o":"m 100 0 l 100 972 l 242 972 l 242 142 l 476 142 q 581 167 535 142 q 650 231 626 192 q 685 319 674 271 q 685 415 696 367 q 650 503 674 463 q 581 568 626 543 q 476 593 535 593 l 363 593 l 363 733 l 485 733 q 621 708 558 733 q 724 641 683 683 q 792 544 764 599 q 826 428 821 489 q 826 306 832 367 q 792 190 821 246 q 724 92 764 135 q 621 25 683 50 q 485 0 558 0 l 100 0 z "},"c":{"ha":739,"x_min":63,"x_max":690,"o":"m 170 626 q 224 680 170 626 q 430 733 278 733 q 689 626 582 733 l 589 526 q 429 593 522 593 q 270 526 336 593 q 204 367 204 460 q 270 208 204 274 q 429 142 336 142 q 589 207 522 142 l 689 107 q 430 0 582 0 q 170 108 278 0 q 63 367 63 215 q 170 626 63 519 z "},"ç":{"ha":739,"x_min":63,"x_max":690,"o":"m 170 626 q 224 680 170 626 q 430 733 278 733 q 689 626 582 733 l 589 526 q 429 593 522 593 q 270 526 336 593 q 204 367 204 460 q 270 208 204 274 q 429 142 336 142 q 589 207 522 142 l 689 107 q 430 0 582 0 q 170 108 278 0 q 63 367 63 215 q 170 626 63 519 z "},"d":{"ha":897,"x_min":64,"x_max":797,"o":"m 796 972 l 796 0 l 411 0 q 260 31 328 0 q 151 115 193 63 q 88 233 110 167 q 65 367 65 299 q 88 502 65 436 q 151 619 110 568 q 260 702 193 671 q 411 733 328 733 l 533 733 l 533 593 l 419 593 q 315 568 361 593 q 246 503 269 543 q 211 415 222 463 q 211 319 200 367 q 246 231 222 271 q 315 167 269 192 q 419 142 361 142 l 654 142 l 654 972 l 796 972 z "},"e":{"ha":853,"x_min":63,"x_max":797,"o":"m 429 589 q 270 523 336 589 q 204 364 204 457 q 270 205 204 271 q 429 139 336 139 q 589 204 522 139 l 689 104 q 430 -3 582 -3 q 170 105 278 -3 q 63 364 63 213 q 170 623 63 515 q 430 731 278 731 q 689 623 582 731 q 796 364 796 515 q 789 293 796 328 l 325 293 l 325 435 l 643 435 q 562 546 621 503 q 429 589 503 589 z "},"f":{"ha":740,"x_min":96,"x_max":696,"o":"m 239 486 l 239 0 l 97 0 l 97 486 q 142 732 97 624 q 281 906 186 840 q 504 972 375 972 l 696 972 l 696 831 l 504 831 q 383 804 435 831 q 300 730 331 778 q 254 621 269 682 q 239 486 239 560 m 360 557 l 696 557 l 696 415 l 360 415 l 360 557 z "},"g":{"ha":897,"x_min":64,"x_max":797,"o":"m 411 733 l 796 733 l 796 129 q 783 20 796 74 q 741 -80 769 -33 q 672 -162 713 -126 q 574 -218 632 -197 q 450 -239 517 -239 l 65 -239 l 65 -97 l 450 -97 q 600 -28 546 -94 q 654 129 654 39 l 654 593 l 419 593 q 315 568 361 593 q 246 503 269 543 q 211 415 222 463 q 211 319 200 367 q 246 231 222 271 q 315 167 269 192 q 419 142 361 142 l 533 142 l 533 0 l 411 0 q 260 31 328 0 q 151 115 193 63 q 88 233 110 167 q 65 367 65 299 q 88 502 65 436 q 151 619 110 568 q 260 702 193 671 q 411 733 328 733 z "},"h":{"ha":915,"x_min":100,"x_max":832,"o":"m 242 0 l 100 0 l 100 972 l 242 972 l 242 671 q 447 733 328 733 l 485 733 q 635 702 568 733 q 744 619 703 671 q 808 502 786 567 q 831 367 831 438 l 831 0 l 689 0 l 689 367 q 633 526 689 458 q 476 593 578 593 l 446 593 l 446 592 q 296 523 350 589 q 242 367 242 457 l 242 0 z "},"i":{"ha":342,"x_min":100,"x_max":242,"o":"m 100 831 l 100 972 l 242 972 l 242 831 l 100 831 m 100 0 l 100 733 l 242 733 l 242 0 l 100 0 z "},"j":{"ha":350,"x_min":-97,"x_max":250,"o":"m 108 831 l 108 972 l 249 972 l 249 831 l 108 831 m -97 -239 l -97 -97 q 54 -28 0 -94 q 108 129 108 39 l 108 733 l 249 733 l 249 129 q 235 20 249 74 q 194 -80 222 -33 q 125 -162 165 -126 q 27 -218 85 -197 q -97 -239 -31 -239 z "},"k":{"ha":861,"x_min":100,"x_max":778,"o":"m 100 0 l 100 972 l 242 972 l 242 438 l 431 438 q 582 497 529 440 q 635 640 635 553 l 635 733 l 776 733 l 776 640 q 746 485 776 557 q 656 367 715 414 q 746 249 715 319 q 776 94 776 178 l 776 0 l 635 0 l 635 94 q 582 237 635 181 q 431 296 529 293 l 242 296 l 242 0 l 100 0 z "},"l":{"ha":342,"x_min":100,"x_max":242,"o":"m 242 0 l 100 0 l 100 972 l 242 972 l 242 0 z "},"m":{"ha":1301,"x_min":83,"x_max":1218,"o":"m 83 367 q 118 544 83 463 q 227 679 153 625 q 403 733 301 733 q 650 607 561 733 q 899 733 740 733 q 1013 713 960 733 q 1103 658 1065 693 q 1167 576 1140 622 q 1206 476 1193 529 q 1218 367 1218 422 l 1218 0 l 1076 0 l 1076 367 q 1058 474 1076 425 q 997 557 1039 524 q 899 592 956 590 q 767 524 814 590 q 721 367 721 457 l 721 0 l 579 0 l 579 367 q 560 474 579 425 q 501 557 542 524 q 403 592 460 590 q 272 524 318 590 q 225 367 225 457 l 225 0 l 83 0 l 83 367 z "},"n":{"ha":899,"x_min":83,"x_max":815,"o":"m 814 367 l 814 0 l 672 0 l 672 367 q 617 526 672 458 q 460 593 561 593 l 429 593 l 429 592 q 317 557 364 590 q 247 474 269 524 q 225 367 225 425 l 225 0 l 83 0 l 83 367 q 90 445 83 407 q 112 520 97 483 q 147 589 126 557 q 197 647 168 621 q 260 693 225 674 q 338 723 294 713 q 429 733 382 733 l 468 733 q 619 702 551 733 q 728 619 686 671 q 792 502 769 567 q 814 367 814 438 z "},"o":{"ha":860,"x_min":63,"x_max":797,"o":"m 170 626 q 224 680 170 626 q 430 733 278 733 q 689 626 582 733 q 796 367 796 519 q 689 108 796 215 q 430 0 582 0 q 170 108 278 0 q 63 367 63 215 q 170 626 63 519 m 270 208 q 303 175 270 208 q 429 142 336 142 q 589 208 522 142 q 656 367 656 274 q 589 526 656 460 q 429 593 522 593 q 270 526 336 593 q 204 367 204 460 q 270 208 204 274 z "},"ø":{"ha":860,"x_min":63,"x_max":797,"o":"m 170 626 q 224 680 170 626 q 430 733 278 733 q 689 626 582 733 q 796 367 796 519 q 689 108 796 215 q 430 0 582 0 q 170 108 278 0 q 63 367 63 215 q 170 626 63 519 m 270 208 q 303 175 270 208 q 429 142 336 142 q 589 208 522 142 q 656 367 656 274 q 589 526 656 460 q 429 593 522 593 q 270 526 336 593 q 204 367 204 460 q 270 208 204 274 z "},"p":{"ha":899,"x_min":101,"x_max":835,"o":"m 101 733 l 486 733 q 622 708 560 733 q 725 641 685 683 q 794 544 765 599 q 828 428 822 489 q 828 306 833 367 q 794 190 822 246 q 725 92 765 135 q 622 25 685 50 q 486 0 560 0 l 364 0 l 364 142 l 478 142 q 582 167 536 142 q 651 231 628 192 q 686 319 675 271 q 686 415 697 367 q 651 503 675 463 q 582 568 628 543 q 478 593 536 593 l 243 593 l 243 -239 l 101 -239 l 101 733 z "},"q":{"ha":899,"x_min":64,"x_max":797,"o":"m 796 733 l 796 -239 l 654 -239 l 654 593 l 419 593 q 315 568 361 593 q 246 503 269 543 q 211 415 222 463 q 211 319 200 367 q 246 231 222 271 q 315 167 269 192 q 419 142 361 142 l 533 142 l 533 0 l 411 0 q 260 31 328 0 q 151 115 193 63 q 88 233 110 167 q 65 367 65 299 q 88 502 65 436 q 151 619 110 568 q 260 702 193 671 q 411 733 328 733 l 796 733 z "},"r":{"ha":650,"x_min":85,"x_max":615,"o":"m 85 0 l 85 388 q 122 559 85 482 q 240 685 160 636 q 431 733 319 733 l 615 733 l 615 593 l 431 593 l 431 592 q 280 532 333 589 q 226 388 226 475 l 226 0 l 85 0 z "},"s":{"ha":746,"x_min":49,"x_max":696,"o":"m 347 296 q 107 404 179 296 q 88 589 50 492 q 239 722 125 690 q 328 733 279 733 l 671 733 l 671 593 l 347 593 q 249 569 285 593 q 214 515 214 544 q 249 462 214 486 q 347 438 285 438 l 399 438 q 638 329 567 438 q 658 144 696 243 q 507 11 619 44 q 418 0 465 0 l 74 0 l 74 142 l 399 142 q 497 166 461 142 q 532 219 532 190 q 497 272 532 247 q 399 296 461 296 l 347 296 z "},"t":{"ha":786,"x_min":83,"x_max":717,"o":"m 346 557 l 715 557 l 715 415 l 346 415 l 346 557 m 429 0 q 278 31 346 0 q 169 115 211 63 q 106 232 128 167 q 83 367 83 297 l 83 972 l 225 972 l 225 367 q 279 211 225 278 q 429 142 333 144 l 715 142 l 715 0 l 429 0 z "},"u":{"ha":899,"x_min":82,"x_max":815,"o":"m 814 367 q 792 232 814 297 q 728 115 769 167 q 619 31 686 63 q 468 0 551 0 l 429 0 q 278 31 346 0 q 169 115 211 63 q 106 232 128 167 q 83 367 83 297 l 83 733 l 225 733 l 225 367 q 279 211 225 278 q 429 142 333 144 l 460 142 q 617 208 561 142 q 672 367 672 275 l 672 733 l 814 733 l 814 367 z "},"v":{"ha":782,"x_min":29,"x_max":751,"o":"m 390 218 l 586 733 l 751 733 l 474 0 l 308 0 l 31 733 l 196 733 l 390 218 z "},"w":{"ha":1128,"x_min":31,"x_max":1097,"o":"m 390 218 l 481 456 l 376 733 l 540 733 l 736 218 l 932 733 l 1096 733 l 818 0 l 654 0 l 564 239 l 474 0 l 308 0 l 31 733 l 196 733 l 390 218 z "},"x":{"ha":893,"x_min":81,"x_max":813,"o":"m 669 0 l 669 71 q 614 229 669 163 q 457 296 558 296 l 426 296 q 276 227 331 293 q 222 71 222 161 l 222 0 l 81 0 l 81 71 q 115 237 81 158 q 213 367 149 315 q 115 497 149 418 q 81 663 81 576 l 81 733 l 222 733 l 222 663 q 276 507 222 574 q 426 438 331 440 l 457 438 q 614 505 558 438 q 669 663 669 572 l 669 733 l 811 733 l 811 663 q 797 552 811 606 q 752 450 782 499 q 679 367 722 401 q 778 237 744 315 q 811 71 811 158 l 811 0 l 669 0 z "},"y":{"ha":915,"x_min":83,"x_max":815,"o":"m 551 0 l 429 0 q 278 31 346 0 q 169 115 211 63 q 106 232 128 167 q 83 367 83 297 l 83 733 l 225 733 l 225 367 q 279 211 225 278 q 429 142 333 144 l 551 142 l 551 0 m 83 -97 l 468 -97 q 618 -28 564 -94 q 672 129 672 39 l 672 733 l 814 733 l 814 129 q 801 20 814 74 q 759 -80 788 -33 q 690 -162 731 -126 q 592 -218 650 -197 q 468 -239 535 -239 l 83 -239 l 83 -97 z "},"ý":{"ha":915,"x_min":83,"x_max":815,"o":"m 551 0 l 429 0 q 278 31 346 0 q 169 115 211 63 q 106 232 128 167 q 83 367 83 297 l 83 733 l 225 733 l 225 367 q 279 211 225 278 q 429 142 333 144 l 551 142 l 551 0 m 83 -97 l 468 -97 q 618 -28 564 -94 q 672 129 672 39 l 672 733 l 814 733 l 814 129 q 801 20 814 74 q 759 -80 788 -33 q 690 -162 731 -126 q 592 -218 650 -197 q 468 -239 535 -239 l 83 -239 l 83 -97 z "},"ÿ":{"ha":915,"x_min":83,"x_max":815,"o":"m 551 0 l 429 0 q 278 31 346 0 q 169 115 211 63 q 106 232 128 167 q 83 367 83 297 l 83 733 l 225 733 l 225 367 q 279 211 225 278 q 429 142 333 144 l 551 142 l 551 0 m 83 -97 l 468 -97 q 618 -28 564 -94 q 672 129 672 39 l 672 733 l 814 733 l 814 129 q 801 20 814 74 q 759 -80 788 -33 q 690 -162 731 -126 q 592 -218 650 -197 q 468 -239 535 -239 l 83 -239 l 83 -97 z "},"z":{"ha":854,"x_min":60,"x_max":772,"o":"m 772 733 l 772 593 q 703 335 772 450 q 515 142 633 221 l 772 142 l 772 0 l 61 0 l 61 142 q 179 156 117 142 q 304 197 242 171 q 424 265 367 224 q 526 354 482 306 q 595 465 569 403 q 621 593 621 526 l 61 593 l 61 733 l 772 733 z "},"{":{"ha":539,"x_min":83,"x_max":638,"o":"m 419 919 l 419 678 q 336 486 419 564 q 419 294 419 408 l 419 53 q 455 -33 419 3 q 540 -68 490 -68 l 636 -68 l 636 -210 l 540 -210 q 355 -133 432 -210 q 278 53 278 -56 l 278 294 q 242 380 278 344 q 157 415 207 415 l 83 415 l 83 557 l 157 557 q 242 592 207 557 q 278 678 278 628 l 278 919 q 355 1105 278 1028 q 540 1182 432 1182 l 636 1182 l 636 1040 l 540 1040 q 455 1005 490 1040 q 419 919 419 969 z "},"|":{"ha":364,"x_min":111,"x_max":253,"o":"m 253 -210 l 111 -210 l 111 1182 l 253 1182 l 253 -210 z "},"}":{"ha":539,"x_min":-99,"x_max":456,"o":"m 381 557 l 454 557 l 454 415 l 381 415 q 296 380 332 415 q 260 294 260 344 l 260 53 q 183 -133 260 -56 q -3 -210 106 -210 l -99 -210 l -99 -68 l -3 -68 q 83 -33 47 -68 q 118 53 118 3 l 118 294 q 203 486 118 408 q 118 678 118 564 l 118 919 q 83 1005 118 969 q -3 1040 47 1040 l -99 1040 l -99 1182 l -3 1182 q 183 1105 106 1182 q 260 919 260 1028 l 260 678 q 296 592 260 628 q 381 557 332 557 z "},"~":{"ha":594,"x_min":69,"x_max":524,"o":"m 468 856 l 524 765 q 461 678 493 706 q 401 650 429 650 q 344 661 372 650 q 288 687 315 672 q 235 708 261 701 q 183 699 210 714 q 131 640 156 683 l 69 731 q 139 813 106 788 q 199 838 172 839 q 252 824 226 836 q 303 799 278 813 q 353 780 329 785 q 408 792 378 775 q 468 856 438 810 z "}," ":{"ha":468,"x_min":0,"x_max":0,"o":""},"¡":{"ha":358,"x_min":108,"x_max":250,"o":"m 250 0 l 108 0 l 108 733 l 250 733 l 250 0 m 250 831 l 108 831 l 108 972 l 250 972 l 250 831 z "},"¢":{"ha":1014,"x_min":94,"x_max":926,"o":"m 653 149 q 825 242 753 169 l 925 142 q 653 4 811 28 l 653 -210 l 511 -210 l 511 6 q 215 167 333 31 q 96 486 96 304 q 215 804 96 668 q 511 967 333 940 l 511 1182 l 653 1182 l 653 967 q 925 829 811 943 l 825 729 q 653 824 753 803 l 653 149 m 511 149 l 511 824 q 315 704 393 799 q 238 486 238 610 q 315 268 238 363 q 511 149 393 174 z "},"¥":{"ha":990,"x_min":101,"x_max":889,"o":"m 747 972 l 889 972 l 889 792 q 751 486 889 583 l 825 486 l 825 344 l 565 344 l 565 274 l 825 274 l 825 132 l 565 132 l 565 0 l 425 0 l 425 132 l 165 132 l 165 274 l 425 274 l 425 344 l 165 344 l 165 486 l 239 486 q 101 792 101 583 l 101 972 l 243 972 l 243 792 q 264 683 243 729 q 321 609 285 636 q 401 569 357 582 q 494 557 444 557 q 550 560 524 557 q 601 573 576 564 q 649 595 626 582 q 689 627 671 608 q 720 669 707 646 q 740 724 733 693 q 747 792 747 756 l 747 972 z "},"¦":{"ha":356,"x_min":107,"x_max":249,"o":"m 249 -210 l 107 -210 l 107 415 l 249 415 l 249 -210 m 249 557 l 107 557 l 107 1182 l 249 1182 l 249 557 z "},"§":{"ha":1288,"x_min":83,"x_max":1201,"o":"m 729 1040 q 654 1025 688 1040 q 603 986 621 1010 q 578 933 586 963 q 578 874 569 903 q 603 821 586 844 q 654 782 621 797 q 729 767 688 767 l 897 767 q 1091 709 1014 767 q 1184 569 1168 651 q 1182 406 1200 488 q 1092 267 1164 325 q 917 210 1019 210 l 819 210 q 851 102 846 160 q 840 -10 857 44 q 790 -110 824 -65 q 701 -183 757 -156 q 575 -210 644 -210 l 90 -210 l 90 -68 l 556 -68 q 631 -53 597 -68 q 681 -13 664 -37 q 707 41 699 11 q 707 100 715 71 q 681 154 699 129 q 631 194 664 179 q 556 210 597 210 l 388 210 q 194 267 271 210 q 101 406 118 325 q 103 569 85 488 q 193 709 121 651 q 368 767 265 767 l 465 767 q 436 854 443 807 q 436 947 429 901 q 465 1036 443 993 q 520 1111 488 1079 q 602 1163 553 1143 q 710 1182 651 1182 l 1194 1182 l 1194 1040 l 729 1040 m 897 625 l 388 625 q 311 610 344 625 q 260 570 278 594 q 235 517 243 546 q 235 458 228 488 q 260 406 243 429 q 311 367 278 382 q 388 351 344 351 l 897 351 q 974 367 940 351 q 1024 406 1007 382 q 1049 458 1042 429 q 1049 517 1057 488 q 1024 570 1042 546 q 974 610 1007 594 q 897 625 940 625 z "},"©":{"ha":1164,"x_min":96,"x_max":1068,"o":"m 704 608 q 582 658 653 658 q 460 608 511 658 q 410 485 410 557 q 460 364 410 414 q 582 314 511 314 q 704 364 653 314 l 754 314 q 581 243 682 243 q 410 314 481 243 q 339 485 339 385 q 410 658 339 586 q 581 729 481 729 q 754 658 682 729 l 704 608 m 338 907 q 394 940 338 907 q 582 972 450 972 q 826 907 714 972 q 1003 730 938 842 q 1068 486 1068 618 q 1003 242 1068 354 q 826 65 938 129 q 582 0 714 0 q 338 65 450 0 q 161 242 226 129 q 96 486 96 354 q 161 730 96 618 q 338 907 226 842 m 288 192 q 349 132 288 192 q 582 71 410 71 q 876 192 754 71 q 997 486 997 314 q 942 694 997 599 q 790 846 886 790 q 582 901 694 901 q 288 780 410 901 q 167 486 167 658 q 288 192 167 314 z "},"«":{"ha":1072,"x_min":86,"x_max":979,"o":"m 978 863 l 978 715 l 608 486 l 978 257 l 978 110 l 494 410 l 494 561 l 978 863 m 569 715 l 200 486 l 569 257 l 569 110 l 86 410 l 86 561 l 569 863 l 569 715 z "},"­":{"ha":0,"x_min":0,"x_max":0,"o":""},"®":{"ha":658,"x_min":85,"x_max":572,"o":"m 425 781 q 390 729 425 743 q 425 676 425 714 l 425 607 l 389 607 l 389 676 q 378 701 389 692 q 350 711 367 711 l 300 711 l 300 747 l 350 747 q 369 751 361 747 q 383 764 378 756 q 389 781 389 772 q 378 805 389 794 q 350 815 367 815 l 269 815 l 269 607 l 233 607 l 233 850 l 354 850 q 404 830 383 850 q 425 781 425 810 m 158 901 q 193 936 158 901 q 329 972 229 972 q 501 901 429 972 q 572 728 572 829 q 501 557 572 628 q 329 486 429 486 q 158 557 229 486 q 86 728 86 628 q 158 901 86 829 m 182 582 q 213 551 182 582 q 329 521 243 521 q 476 582 415 521 q 538 729 538 643 q 509 833 538 785 q 433 908 481 881 q 329 936 386 936 q 224 908 272 936 q 149 833 176 881 q 121 729 121 785 q 182 582 121 643 z "},"±":{"ha":919,"x_min":83,"x_max":836,"o":"m 836 -210 l 83 -210 l 83 -68 l 836 -68 l 836 -210 m 531 557 l 836 557 l 836 415 l 531 415 l 531 110 l 389 110 l 389 415 l 83 415 l 83 557 l 389 557 l 389 863 l 531 863 l 531 557 z "},"²":{"ha":560,"x_min":88,"x_max":474,"o":"m 160 625 l 160 557 l 469 557 l 469 486 l 89 486 l 89 625 q 98 676 89 651 q 124 721 107 701 q 171 752 142 740 q 238 764 200 764 l 321 764 q 379 785 358 764 q 400 833 400 807 q 379 880 400 858 q 321 901 358 901 l 89 901 l 89 972 l 331 972 q 418 944 382 972 q 463 874 454 915 q 465 792 472 833 q 418 722 457 751 q 321 693 379 693 l 238 693 q 181 673 201 693 q 160 625 160 653 z "},"³":{"ha":518,"x_min":82,"x_max":428,"o":"m 361 729 q 428 625 428 700 q 387 527 428 568 q 289 486 346 486 l 83 486 l 83 557 l 279 557 q 334 577 311 557 q 357 625 357 597 q 347 659 357 643 q 318 684 336 675 q 279 693 300 693 l 190 693 l 190 764 l 279 764 q 334 784 311 764 q 357 833 357 804 q 334 881 357 861 q 279 901 311 901 l 83 901 l 83 972 l 289 972 q 387 931 346 972 q 428 833 428 890 q 361 729 428 757 z "},"¹":{"ha":375,"x_min":78,"x_max":283,"o":"m 147 972 q 242 933 203 972 q 282 836 282 893 l 282 486 l 211 486 l 211 836 q 192 883 211 864 q 147 901 174 901 l 78 901 l 78 972 l 147 972 z "},"»":{"ha":1072,"x_min":93,"x_max":986,"o":"m 576 561 l 576 410 l 93 110 l 93 257 l 463 486 l 93 715 l 93 863 l 576 561 m 501 863 l 985 561 l 985 410 l 501 110 l 501 257 l 871 486 l 501 715 l 501 863 z "},"¼":{"ha":1019,"x_min":78,"x_max":936,"o":"m 282 486 l 211 486 l 211 836 q 192 883 211 864 q 147 901 174 901 l 78 901 l 78 972 l 147 972 q 242 933 203 972 q 282 836 282 893 l 282 486 m 640 238 l 935 238 l 935 0 l 864 0 l 864 167 l 551 167 l 632 486 l 703 486 l 640 238 m 481 972 l 626 972 l 367 0 l 219 0 l 481 972 z "},"½":{"ha":1036,"x_min":78,"x_max":949,"o":"m 282 486 l 211 486 l 211 836 q 192 883 211 864 q 147 901 174 901 l 78 901 l 78 972 l 147 972 q 242 933 203 972 q 282 836 282 893 l 282 486 m 635 139 l 635 71 l 946 71 l 946 0 l 564 0 l 564 139 q 579 206 564 175 q 629 258 594 238 q 713 278 664 278 l 797 278 q 854 299 833 278 q 875 347 875 321 q 854 394 875 372 q 797 415 833 415 l 564 415 l 564 486 l 807 486 q 894 458 858 486 q 940 388 931 429 q 940 306 949 347 q 894 236 932 265 q 797 207 856 207 l 713 207 q 656 187 676 207 q 636 139 636 167 l 635 139 m 481 972 l 626 972 l 367 0 l 219 0 l 481 972 z "},"¾":{"ha":1149,"x_min":88,"x_max":1065,"o":"m 433 625 q 392 527 433 568 q 294 486 351 486 l 89 486 l 89 557 l 285 557 q 340 577 317 557 q 363 625 363 597 q 340 673 363 653 q 285 693 317 693 l 196 693 l 196 764 l 285 764 q 340 784 317 764 q 363 833 363 804 q 352 867 363 851 q 324 892 342 883 q 285 901 306 901 l 89 901 l 89 972 l 294 972 q 392 931 351 972 q 433 833 433 890 q 367 729 433 757 q 433 625 433 700 m 611 972 l 757 972 l 497 0 l 350 0 l 611 972 m 771 238 l 1065 238 l 1065 0 l 994 0 l 994 167 l 682 167 l 763 486 l 833 486 l 771 238 z "},"¿":{"ha":764,"x_min":89,"x_max":683,"o":"m 514 831 l 372 831 l 372 972 l 514 972 l 514 831 m 388 142 l 682 142 l 682 0 l 368 0 q 263 19 311 0 q 181 69 214 38 q 125 141 149 100 q 95 227 101 182 q 92 318 89 272 q 118 406 96 364 q 173 481 140 447 q 257 534 206 514 q 372 557 308 554 l 372 733 l 514 733 l 514 415 l 388 415 q 311 400 344 415 q 260 360 278 385 q 235 307 243 336 q 235 249 228 278 q 260 195 243 219 q 311 156 278 171 q 388 142 344 142 z "},"À":{"ha":965,"x_min":88,"x_max":854,"o":"m 635 1069 l 522 1069 l 307 1401 l 482 1401 l 635 1069 m 526 972 l 854 972 l 854 0 l 713 0 l 713 415 l 351 415 l 351 557 l 713 557 l 713 831 l 526 831 q 366 784 435 831 q 264 660 297 738 q 231 486 231 582 l 231 0 l 89 0 l 89 486 q 142 731 89 621 q 295 906 194 840 q 526 972 396 972 z "},"Á":{"ha":965,"x_min":89,"x_max":854,"o":"m 635 1401 l 419 1069 l 307 1069 l 461 1401 l 635 1401 m 526 972 l 854 972 l 854 0 l 713 0 l 713 415 l 351 415 l 351 557 l 713 557 l 713 831 l 526 831 q 401 803 457 831 q 307 730 344 776 q 250 621 269 683 q 231 486 231 558 l 231 0 l 89 0 l 89 486 q 142 731 89 621 q 295 906 194 840 q 526 972 396 972 z "},"Â":{"ha":965,"x_min":89,"x_max":854,"o":"m 471 1267 l 363 1069 l 217 1069 l 399 1401 l 544 1401 l 726 1069 l 579 1069 l 471 1267 m 526 972 l 854 972 l 854 0 l 713 0 l 713 415 l 351 415 l 351 557 l 713 557 l 713 831 l 526 831 q 401 803 457 831 q 307 730 344 776 q 250 621 269 683 q 231 486 231 558 l 231 0 l 89 0 l 89 486 q 142 731 89 621 q 295 906 194 840 q 526 972 396 972 z "},"Ã":{"ha":965,"x_min":89,"x_max":854,"o":"m 526 972 l 854 972 l 854 0 l 713 0 l 713 415 l 351 415 l 351 557 l 713 557 l 713 831 l 526 831 q 401 803 457 831 q 307 730 344 776 q 250 621 269 683 q 231 486 231 558 l 231 0 l 89 0 l 89 486 q 142 731 89 621 q 295 906 194 840 q 526 972 396 972 m 699 1194 q 635 1107 668 1135 q 575 1079 603 1079 q 519 1090 547 1079 q 463 1116 490 1101 q 410 1137 436 1131 q 357 1128 385 1143 q 306 1069 329 1113 l 244 1160 q 313 1242 279 1217 q 374 1267 347 1268 q 427 1254 401 1267 q 478 1228 453 1242 q 528 1209 503 1214 q 583 1222 553 1204 q 642 1285 613 1239 l 699 1194 z "},"Ä":{"ha":965,"x_min":89,"x_max":854,"o":"m 649 1069 l 507 1069 l 507 1211 l 649 1211 l 649 1069 m 526 972 l 854 972 l 854 0 l 713 0 l 713 415 l 351 415 l 351 557 l 713 557 l 713 831 l 526 831 q 401 803 457 831 q 307 730 344 776 q 250 621 269 683 q 231 486 231 558 l 231 0 l 89 0 l 89 486 q 142 731 89 621 q 295 906 194 840 q 526 972 396 972 m 436 1069 l 294 1069 l 294 1211 l 436 1211 l 436 1069 z "},"Å":{"ha":965,"x_min":89,"x_max":854,"o":"m 526 972 l 854 972 l 854 0 l 713 0 l 713 415 l 351 415 l 351 557 l 713 557 l 713 831 l 526 831 q 401 803 457 831 q 307 730 344 776 q 250 621 269 683 q 231 486 231 558 l 231 0 l 89 0 l 89 486 q 142 731 89 621 q 295 906 194 840 q 526 972 396 972 m 589 1118 q 565 1094 589 1118 q 472 1069 540 1069 q 354 1118 403 1069 q 306 1235 306 1167 q 354 1353 306 1304 q 472 1401 403 1401 q 589 1353 540 1401 q 638 1235 638 1304 q 589 1118 638 1167 m 544 1308 q 529 1323 544 1308 q 472 1338 514 1338 q 399 1308 429 1338 q 369 1235 369 1278 q 399 1163 369 1193 q 472 1133 429 1133 q 544 1163 514 1133 q 574 1235 574 1193 q 544 1308 574 1278 z "},"Æ":{"ha":1519,"x_min":89,"x_max":1438,"o":"m 1436 415 l 975 415 l 975 557 l 1436 557 l 1436 415 m 526 972 l 1436 972 l 1436 831 l 854 831 l 854 486 q 933 240 854 338 q 1150 142 1011 142 l 1436 142 l 1436 0 l 1150 0 q 854 117 971 0 q 717 415 738 233 l 351 415 l 351 557 l 713 557 l 713 831 l 526 831 q 310 733 389 831 q 231 486 231 635 l 231 0 l 89 0 l 89 486 q 142 731 89 621 q 295 906 194 840 q 526 972 396 972 z "},"È":{"ha":875,"x_min":67,"x_max":792,"o":"m 790 415 l 329 415 l 329 557 l 790 557 l 790 415 m 593 1069 l 481 1069 l 265 1401 l 439 1401 l 593 1069 m 504 972 l 790 972 l 790 831 l 504 831 q 288 733 367 831 q 208 486 208 635 q 288 240 208 338 q 504 142 367 142 l 790 142 l 790 0 l 504 0 q 273 66 374 0 q 119 242 172 132 q 67 486 67 351 q 119 731 67 621 q 273 906 172 840 q 504 972 374 972 z "},"É":{"ha":875,"x_min":65,"x_max":792,"o":"m 593 1401 l 378 1069 l 265 1069 l 418 1401 l 593 1401 m 504 972 l 790 972 l 790 831 l 504 831 q 344 784 413 831 q 242 660 275 738 q 208 486 208 582 q 288 240 208 338 q 504 142 367 142 l 790 142 l 790 0 l 504 0 q 273 66 374 0 q 119 242 172 132 q 67 486 67 351 q 119 731 67 621 q 273 906 172 840 q 504 972 374 972 m 790 415 l 329 415 l 329 557 l 790 557 l 790 415 z "},"Ê":{"ha":875,"x_min":67,"x_max":792,"o":"m 790 415 l 329 415 l 329 557 l 790 557 l 790 415 m 429 1267 l 321 1069 l 174 1069 l 356 1401 l 501 1401 l 683 1069 l 538 1069 l 429 1267 m 504 972 l 790 972 l 790 831 l 504 831 q 288 733 367 831 q 208 486 208 635 q 288 240 208 338 q 504 142 367 142 l 790 142 l 790 0 l 504 0 q 273 66 374 0 q 119 242 172 132 q 67 486 67 351 q 119 731 67 621 q 273 906 172 840 q 504 972 374 972 z "},"Ë":{"ha":875,"x_min":67,"x_max":792,"o":"m 393 1069 l 251 1069 l 251 1211 l 393 1211 l 393 1069 m 606 1069 l 464 1069 l 464 1211 l 606 1211 l 606 1069 m 504 972 l 790 972 l 790 831 l 504 831 q 288 733 367 831 q 208 486 208 635 q 288 240 208 338 q 504 142 367 142 l 790 142 l 790 0 l 504 0 q 273 66 374 0 q 119 242 172 132 q 67 486 67 351 q 119 731 67 621 q 273 906 172 840 q 504 972 374 972 m 790 415 l 329 415 l 329 557 l 790 557 l 790 415 z "},"Ì":{"ha":365,"x_min":18,"x_max":347,"o":"m 346 1069 l 233 1069 l 18 1401 l 192 1401 l 346 1069 m 253 0 l 111 0 l 111 972 l 253 972 l 253 0 z "},"Í":{"ha":365,"x_min":18,"x_max":347,"o":"m 346 1401 l 131 1069 l 18 1069 l 172 1401 l 346 1401 m 253 0 l 111 0 l 111 972 l 253 972 l 253 0 z "},"Î":{"ha":365,"x_min":-72,"x_max":438,"o":"m 253 0 l 111 0 l 111 972 l 253 972 l 253 0 m 256 1401 l 438 1069 l 290 1069 l 182 1267 l 74 1069 l -72 1069 l 110 1401 l 256 1401 z "},"Ï":{"ha":365,"x_min":6,"x_max":360,"o":"m 147 1069 l 6 1069 l 6 1211 l 147 1211 l 147 1069 m 253 0 l 111 0 l 111 972 l 253 972 l 253 0 m 360 1069 l 218 1069 l 218 1211 l 360 1211 l 360 1069 z "},"Ñ":{"ha":985,"x_min":94,"x_max":890,"o":"m 719 1194 q 657 1107 689 1135 q 597 1079 625 1079 q 540 1090 568 1079 q 484 1116 511 1101 q 431 1137 457 1131 q 378 1128 406 1143 q 326 1069 351 1113 l 265 1160 q 335 1242 301 1217 q 395 1267 368 1268 q 448 1254 422 1267 q 499 1228 474 1242 q 549 1209 525 1214 q 603 1222 574 1204 q 664 1285 633 1239 l 719 1194 m 853 972 l 890 0 l 749 0 l 264 731 l 236 0 l 94 0 l 132 972 l 274 972 l 738 272 l 711 972 l 853 972 z "},"Ò":{"ha":1097,"x_min":63,"x_max":1035,"o":"m 549 972 q 792 907 681 972 q 969 730 904 842 q 1035 486 1035 618 q 969 242 1035 354 q 792 65 904 131 q 549 0 681 0 q 305 65 417 0 q 128 242 193 131 q 63 486 63 354 q 101 675 63 585 q 204 831 139 765 q 360 934 269 896 q 549 972 450 972 m 305 242 q 355 192 305 242 q 549 142 406 142 q 792 242 692 142 q 893 486 893 343 q 792 730 893 629 q 549 831 692 831 q 376 785 456 831 q 250 659 296 739 q 204 486 204 579 q 305 242 204 343 m 713 1069 l 600 1069 l 385 1401 l 558 1401 l 713 1069 z "},"Ó":{"ha":1097,"x_min":63,"x_max":1035,"o":"m 713 1401 l 497 1069 l 385 1069 l 539 1401 l 713 1401 m 549 972 q 792 907 681 972 q 969 730 904 842 q 1035 486 1035 618 q 969 242 1035 354 q 792 65 904 131 q 549 0 681 0 q 305 65 417 0 q 128 242 193 131 q 63 486 63 354 q 101 675 63 585 q 204 831 139 765 q 360 934 269 896 q 549 972 450 972 m 305 242 q 355 192 305 242 q 549 142 406 142 q 792 242 692 142 q 893 486 893 343 q 792 730 893 629 q 549 831 692 831 q 376 785 456 831 q 250 659 296 739 q 204 486 204 579 q 305 242 204 343 z "},"Ô":{"ha":1097,"x_min":61,"x_max":1035,"o":"m 549 1267 l 440 1069 l 294 1069 l 475 1401 l 622 1401 l 803 1069 l 657 1069 l 549 1267 m 305 907 q 361 940 305 907 q 549 972 417 972 q 792 907 681 972 q 969 730 904 842 q 1035 486 1035 618 q 969 242 1035 354 q 792 65 904 131 q 549 0 681 0 q 360 38 450 0 q 204 142 269 76 q 101 297 139 207 q 63 486 63 388 q 128 730 63 618 q 305 907 193 842 m 549 142 q 792 242 692 142 q 893 486 893 343 q 792 730 893 629 q 549 831 692 831 q 305 730 406 831 q 204 486 204 629 q 250 313 204 393 q 376 188 296 233 q 549 142 456 142 z "},"Õ":{"ha":1097,"x_min":63,"x_max":1035,"o":"m 775 1194 q 713 1107 744 1135 q 652 1079 681 1079 q 596 1090 624 1079 q 540 1116 568 1101 q 487 1137 513 1131 q 434 1128 461 1143 q 383 1069 407 1113 l 322 1160 q 390 1242 357 1217 q 451 1267 424 1268 q 504 1254 478 1267 q 556 1228 531 1242 q 606 1209 581 1214 q 660 1222 631 1204 q 719 1285 689 1239 l 775 1194 m 549 972 q 792 907 681 972 q 969 730 904 842 q 1035 486 1035 618 q 969 242 1035 354 q 792 65 904 131 q 549 0 681 0 q 305 65 417 0 q 128 242 193 131 q 63 486 63 354 q 101 675 63 585 q 204 831 139 765 q 360 934 269 896 q 549 972 450 972 m 305 242 q 355 192 305 242 q 549 142 406 142 q 792 242 692 142 q 893 486 893 343 q 792 730 893 629 q 549 831 692 831 q 376 785 456 831 q 250 659 296 739 q 204 486 204 579 q 305 242 204 343 z "},"Ö":{"ha":1097,"x_min":63,"x_max":1035,"o":"m 514 1069 l 372 1069 l 372 1211 l 514 1211 l 514 1069 m 725 1069 l 583 1069 l 583 1211 l 725 1211 l 725 1069 m 549 972 q 792 907 681 972 q 969 730 904 842 q 1035 486 1035 618 q 969 242 1035 354 q 792 65 904 131 q 549 0 681 0 q 305 65 417 0 q 128 242 193 131 q 63 486 63 354 q 101 675 63 585 q 204 831 139 765 q 360 934 269 896 q 549 972 450 972 m 305 242 q 355 192 305 242 q 549 142 406 142 q 792 242 692 142 q 893 486 893 343 q 792 730 893 629 q 549 831 692 831 q 376 785 456 831 q 250 659 296 739 q 204 486 204 579 q 305 242 204 343 z "},"×":{"ha":804,"x_min":86,"x_max":718,"o":"m 718 701 l 503 486 l 718 269 l 618 169 l 403 386 l 186 169 l 86 269 l 301 486 l 86 701 l 186 801 l 403 586 l 618 801 l 718 701 z "},"Ù":{"ha":982,"x_min":96,"x_max":885,"o":"m 656 1069 l 542 1069 l 326 1401 l 501 1401 l 656 1069 m 743 972 l 885 972 l 885 369 q 854 199 885 274 q 769 81 824 125 q 644 16 714 38 q 491 -6 575 -6 q 338 16 407 -6 q 213 81 268 38 q 128 199 158 125 q 97 369 97 274 l 97 972 l 239 972 l 239 369 q 260 261 239 308 q 317 188 281 214 q 397 149 353 161 q 490 136 440 136 q 567 144 531 136 q 635 169 603 151 q 692 213 668 186 q 729 279 715 239 q 743 369 743 319 l 743 972 z "},"Ú":{"ha":982,"x_min":97,"x_max":885,"o":"m 656 1401 l 440 1069 l 326 1069 l 481 1401 l 656 1401 m 743 972 l 885 972 l 885 369 q 854 199 885 274 q 769 81 824 125 q 644 16 714 38 q 491 -6 575 -6 q 338 16 407 -6 q 213 81 268 38 q 128 199 158 125 q 97 369 97 274 l 97 972 l 239 972 l 239 369 q 260 261 239 308 q 317 188 281 214 q 397 149 353 161 q 490 136 440 136 q 567 144 531 136 q 635 169 603 151 q 692 213 668 186 q 729 279 715 239 q 743 369 743 319 l 743 972 z "},"Û":{"ha":982,"x_min":97,"x_max":885,"o":"m 743 972 l 885 972 l 885 369 q 854 199 885 274 q 769 81 824 125 q 644 16 714 38 q 491 -6 575 -6 q 338 16 407 -6 q 213 81 268 38 q 128 199 158 125 q 97 369 97 274 l 97 972 l 239 972 l 239 369 q 260 261 239 308 q 317 188 281 214 q 397 149 353 161 q 490 136 440 136 q 567 144 531 136 q 635 169 603 151 q 692 213 668 186 q 729 279 715 239 q 743 369 743 319 l 743 972 m 490 1267 l 383 1069 l 236 1069 l 418 1401 l 564 1401 l 746 1069 l 599 1069 l 490 1267 z "},"Ü":{"ha":982,"x_min":97,"x_max":885,"o":"m 668 1069 l 526 1069 l 526 1211 l 668 1211 l 668 1069 m 743 972 l 885 972 l 885 369 q 854 199 885 274 q 769 81 824 125 q 644 16 714 38 q 491 -6 575 -6 q 338 16 407 -6 q 213 81 268 38 q 128 199 158 125 q 97 369 97 274 l 97 972 l 239 972 l 239 369 q 260 261 239 308 q 317 188 281 214 q 397 149 353 161 q 490 136 440 136 q 567 144 531 136 q 635 169 603 151 q 692 213 668 186 q 729 279 715 239 q 743 369 743 319 l 743 972 m 456 1069 l 314 1069 l 314 1211 l 456 1211 l 456 1069 z "},"à":{"ha":897,"x_min":64,"x_max":797,"o":"m 594 831 l 482 831 l 267 1163 l 440 1163 l 594 831 m 654 733 l 796 733 l 796 0 l 411 0 q 260 31 328 0 q 151 115 193 63 q 88 233 110 167 q 65 367 65 299 q 88 502 65 436 q 151 619 110 568 q 260 702 193 671 q 411 733 328 733 l 533 733 l 533 593 l 419 593 q 302 559 351 593 q 230 475 253 525 q 207 367 207 425 q 230 258 207 308 q 302 175 253 208 q 419 142 351 142 l 654 142 l 654 733 z "},"á":{"ha":897,"x_min":64,"x_max":797,"o":"m 594 1163 l 379 831 l 267 831 l 421 1163 l 594 1163 m 654 733 l 796 733 l 796 0 l 411 0 q 260 31 328 0 q 151 115 193 63 q 88 233 110 167 q 65 367 65 299 q 88 502 65 436 q 151 619 110 568 q 260 702 193 671 q 411 733 328 733 l 533 733 l 533 593 l 419 593 q 302 559 351 593 q 230 475 253 525 q 207 367 207 425 q 230 258 207 308 q 302 175 253 208 q 419 142 351 142 l 654 142 l 654 733 z "},"â":{"ha":897,"x_min":64,"x_max":797,"o":"m 654 733 l 796 733 l 796 0 l 411 0 q 260 31 328 0 q 151 115 193 63 q 88 233 110 167 q 65 367 65 299 q 88 502 65 436 q 151 619 110 568 q 260 702 193 671 q 411 733 328 733 l 533 733 l 533 593 l 419 593 q 302 559 351 593 q 230 475 253 525 q 207 367 207 425 q 230 258 207 308 q 302 175 253 208 q 419 142 351 142 l 654 142 l 654 733 m 431 1029 l 322 831 l 176 831 l 357 1163 l 504 1163 l 685 831 l 539 831 l 431 1029 z "},"ã":{"ha":897,"x_min":64,"x_max":797,"o":"m 658 956 q 594 869 626 897 q 534 842 563 842 q 478 853 506 842 q 422 878 450 864 q 369 899 394 892 q 316 890 343 906 q 265 831 289 874 l 204 922 q 272 1004 239 978 q 333 1029 306 1031 q 386 1016 360 1028 q 438 990 413 1004 q 488 971 463 976 q 542 983 513 965 q 601 1047 571 1001 l 658 956 m 654 733 l 796 733 l 796 0 l 411 0 q 260 31 328 0 q 151 115 193 63 q 88 233 110 167 q 65 367 65 299 q 88 502 65 436 q 151 619 110 568 q 260 702 193 671 q 411 733 328 733 l 533 733 l 533 593 l 419 593 q 302 559 351 593 q 230 475 253 525 q 207 367 207 425 q 230 258 207 308 q 302 175 253 208 q 419 142 351 142 l 654 142 l 654 733 z "},"ä":{"ha":897,"x_min":64,"x_max":797,"o":"m 654 733 l 796 733 l 796 0 l 411 0 q 260 31 328 0 q 151 115 193 63 q 88 233 110 167 q 65 367 65 299 q 88 502 65 436 q 151 619 110 568 q 260 702 193 671 q 411 733 328 733 l 533 733 l 533 593 l 419 593 q 302 559 351 593 q 230 475 253 525 q 207 367 207 425 q 230 258 207 308 q 302 175 253 208 q 419 142 351 142 l 654 142 l 654 733 m 607 831 l 467 831 l 467 972 l 607 972 l 607 831 m 396 831 l 254 831 l 254 972 l 396 972 l 396 831 z "},"å":{"ha":897,"x_min":64,"x_max":797,"o":"m 549 879 q 524 855 549 879 q 431 831 500 831 q 313 879 363 831 q 265 997 264 928 q 314 1114 265 1065 q 431 1163 363 1163 q 549 1114 500 1163 q 597 997 597 1065 q 549 879 597 928 m 503 1069 q 489 1084 503 1069 q 431 1099 474 1099 q 359 1069 389 1099 q 329 997 329 1039 q 342 946 329 969 q 379 908 356 922 q 431 894 403 894 q 503 924 474 894 q 533 997 533 954 q 503 1069 533 1039 m 654 733 l 796 733 l 796 0 l 411 0 q 260 31 328 0 q 151 115 193 63 q 88 233 110 167 q 65 367 65 299 q 88 502 65 436 q 151 619 110 568 q 260 702 193 671 q 411 733 328 733 l 533 733 l 533 593 l 419 593 q 302 559 351 593 q 230 475 253 525 q 207 367 207 425 q 230 258 207 308 q 302 175 253 208 q 419 142 351 142 l 654 142 l 654 733 z "},"æ":{"ha":1444,"x_min":64,"x_max":1389,"o":"m 971 296 l 971 438 l 1236 438 q 1154 549 1213 506 q 1021 592 1096 592 q 862 526 928 592 q 796 367 796 460 q 862 208 796 274 q 1022 142 928 142 q 1181 207 1115 142 l 1281 107 q 1022 0 1174 0 q 762 108 869 0 q 654 367 654 215 q 732 592 654 493 l 419 592 q 302 558 351 592 q 230 475 253 525 q 207 367 207 425 q 230 258 207 308 q 302 175 253 208 q 419 142 351 142 l 608 142 l 608 0 l 411 0 q 260 31 328 0 q 151 115 193 63 q 88 233 110 167 q 65 367 65 299 q 88 502 65 436 q 151 619 110 568 q 260 702 193 671 q 411 733 328 733 l 1021 733 q 1068 731 1044 733 l 1086 728 q 1303 603 1217 706 q 1389 367 1389 501 q 1382 296 1389 331 l 971 296 z "},"è":{"ha":853,"x_min":63,"x_max":797,"o":"m 593 831 l 481 831 l 265 1163 l 439 1163 l 593 831 m 789 296 l 325 296 l 325 438 l 643 438 q 562 549 621 506 q 429 592 503 592 q 270 526 336 592 q 204 367 204 460 q 270 208 204 274 q 429 142 336 142 q 589 207 522 142 l 689 107 q 430 0 582 0 q 170 108 278 0 q 63 367 63 215 q 120 565 63 476 q 274 699 178 654 q 476 731 369 744 l 494 728 q 710 603 624 706 q 796 367 796 501 q 789 296 796 331 z "},"é":{"ha":853,"x_min":63,"x_max":797,"o":"m 593 1163 l 378 831 l 265 831 l 419 1163 l 593 1163 m 790 296 l 325 296 l 325 438 l 643 438 q 598 517 629 482 q 522 572 567 553 q 429 592 478 592 q 270 526 336 592 q 204 367 204 460 q 270 208 204 274 q 429 142 336 142 q 589 207 522 142 l 689 107 q 430 0 582 0 q 170 108 278 0 q 63 367 63 215 q 120 565 63 476 q 274 699 178 654 q 476 731 369 744 l 494 728 q 710 603 624 706 q 796 367 796 501 q 790 296 796 332 z "},"ê":{"ha":853,"x_min":63,"x_max":797,"o":"m 429 1029 l 321 831 l 175 831 l 356 1163 l 503 1163 l 685 831 l 538 831 l 429 1029 m 789 296 l 325 296 l 325 438 l 643 438 q 562 549 621 506 q 429 592 503 592 q 270 526 336 592 q 204 367 204 460 q 270 208 204 274 q 429 142 336 142 q 589 207 522 142 l 689 107 q 430 0 582 0 q 170 108 278 0 q 63 367 63 215 q 120 565 63 476 q 274 699 178 654 q 476 731 369 744 l 494 728 q 710 603 624 706 q 796 367 796 501 q 789 296 796 332 z "},"ë":{"ha":853,"x_min":63,"x_max":797,"o":"m 394 831 l 253 831 l 253 972 l 394 972 l 394 831 m 607 831 l 465 831 l 465 972 l 607 972 l 607 831 m 325 296 l 325 438 l 643 438 q 562 549 621 506 q 429 592 503 592 q 270 526 336 592 q 204 367 204 460 q 270 208 204 274 q 429 142 336 142 q 589 207 522 142 l 689 107 q 430 0 582 0 q 170 108 278 0 q 63 367 63 215 q 120 565 63 476 q 274 699 178 654 q 476 731 369 744 l 494 728 q 710 603 624 706 q 796 367 796 501 q 790 296 796 332 l 325 296 z "},"ì":{"ha":343,"x_min":7,"x_max":336,"o":"m 335 831 l 222 831 l 7 1163 l 181 1163 l 335 831 m 242 0 l 100 0 l 100 733 l 242 733 l 242 0 z "},"í":{"ha":343,"x_min":7,"x_max":336,"o":"m 335 1163 l 119 831 l 7 831 l 161 1163 l 335 1163 m 242 0 l 100 0 l 100 733 l 242 733 l 242 0 z "},"î":{"ha":343,"x_min":-83,"x_max":426,"o":"m 242 0 l 100 0 l 100 733 l 242 733 l 242 0 m 244 1163 l 426 831 l 279 831 l 171 1029 l 63 831 l -83 831 l 99 1163 l 244 1163 z "},"ï":{"ha":343,"x_min":-6,"x_max":349,"o":"m 136 831 l -6 831 l -6 972 l 136 972 l 136 831 m 242 0 l 100 0 l 100 733 l 242 733 l 242 0 m 349 831 l 207 831 l 207 972 l 349 972 l 349 831 z "},"ñ":{"ha":899,"x_min":83,"x_max":815,"o":"m 676 956 q 613 869 644 897 q 552 842 581 842 q 496 853 524 842 q 440 878 468 864 q 387 899 413 892 q 334 890 361 906 q 283 831 307 874 l 222 922 q 290 1004 257 978 q 351 1029 324 1031 q 404 1016 378 1028 q 456 990 431 1004 q 506 971 481 976 q 560 983 531 965 q 619 1047 589 1001 l 676 956 m 468 733 q 619 702 551 733 q 728 619 686 671 q 792 502 769 567 q 814 367 814 438 l 814 0 l 672 0 l 672 367 q 617 526 672 458 q 460 593 561 593 l 429 593 l 429 592 q 317 557 364 590 q 247 474 269 524 q 225 367 225 425 l 225 0 l 83 0 l 83 367 q 97 475 83 422 q 140 575 111 528 q 208 658 168 622 q 306 713 249 693 q 429 733 363 733 l 468 733 z "},"ò":{"ha":860,"x_min":63,"x_max":797,"o":"m 170 626 q 224 680 170 626 q 430 733 278 733 q 689 626 582 733 q 796 367 796 519 q 689 108 796 215 q 430 0 582 0 q 170 108 278 0 q 63 367 63 215 q 170 626 63 519 m 270 208 q 303 175 270 208 q 429 142 336 142 q 589 208 522 142 q 656 367 656 274 q 589 526 656 460 q 429 593 522 593 q 270 526 336 593 q 204 367 204 460 q 270 208 204 274 m 593 831 l 481 831 l 265 1163 l 439 1163 l 593 831 z "},"ó":{"ha":860,"x_min":63,"x_max":797,"o":"m 593 1163 l 378 831 l 265 831 l 419 1163 l 593 1163 m 170 626 q 224 680 170 626 q 430 733 278 733 q 689 626 582 733 q 796 367 796 519 q 689 108 796 215 q 430 0 582 0 q 170 108 278 0 q 63 367 63 215 q 170 626 63 519 m 270 208 q 303 175 270 208 q 429 142 336 142 q 589 208 522 142 q 656 367 656 274 q 589 526 656 460 q 429 593 522 593 q 270 526 336 593 q 204 367 204 460 q 270 208 204 274 z "},"ô":{"ha":860,"x_min":63,"x_max":797,"o":"m 429 1029 l 321 831 l 175 831 l 356 1163 l 503 1163 l 685 831 l 538 831 l 429 1029 m 170 626 q 224 680 170 626 q 430 733 278 733 q 689 626 582 733 q 796 367 796 519 q 689 108 796 215 q 430 0 582 0 q 170 108 278 0 q 63 367 63 215 q 170 626 63 519 m 270 208 q 303 175 270 208 q 429 142 336 142 q 589 208 522 142 q 656 367 656 274 q 589 526 656 460 q 429 593 522 593 q 270 526 336 593 q 204 367 204 460 q 270 208 204 274 z "},"õ":{"ha":860,"x_min":63,"x_max":797,"o":"m 657 956 q 594 869 626 897 q 533 842 561 842 q 477 853 506 842 q 421 878 449 864 q 368 899 393 892 q 315 890 343 906 q 264 831 288 874 l 203 922 q 272 1004 238 978 q 333 1029 306 1031 q 385 1016 360 1028 q 436 990 411 1004 q 486 971 461 976 q 541 983 511 965 q 600 1047 571 1001 l 657 956 m 170 626 q 224 680 170 626 q 430 733 278 733 q 689 626 582 733 q 796 367 796 519 q 689 108 796 215 q 430 0 582 0 q 170 108 278 0 q 63 367 63 215 q 170 626 63 519 m 270 208 q 303 175 270 208 q 429 142 336 142 q 589 208 522 142 q 656 367 656 274 q 589 526 656 460 q 429 593 522 593 q 270 526 336 593 q 204 367 204 460 q 270 208 204 274 z "},"ö":{"ha":860,"x_min":61,"x_max":797,"o":"m 607 831 l 465 831 l 465 972 l 607 972 l 607 831 m 394 831 l 253 831 l 253 972 l 394 972 l 394 831 m 170 626 q 224 680 170 626 q 430 733 278 733 q 689 626 582 733 q 796 367 796 519 q 689 108 796 215 q 430 0 582 0 q 170 108 278 0 q 63 367 63 215 q 170 626 63 519 m 270 208 q 303 175 270 208 q 429 142 336 142 q 589 208 522 142 q 656 367 656 274 q 589 526 656 460 q 429 593 522 593 q 270 526 336 593 q 204 367 204 460 q 270 208 204 274 z "},"÷":{"ha":758,"x_min":69,"x_max":689,"o":"m 450 721 l 308 721 l 308 863 l 450 863 l 450 721 m 450 110 l 308 110 l 308 251 l 450 251 l 450 110 m 689 415 l 69 415 l 69 557 l 689 557 l 689 415 z "},"ù":{"ha":899,"x_min":83,"x_max":815,"o":"m 672 733 l 814 733 l 814 367 q 792 232 814 297 q 728 115 769 167 q 619 31 686 63 q 468 0 551 0 l 429 0 q 278 31 346 0 q 169 115 211 63 q 106 232 128 167 q 83 367 83 297 l 83 733 l 225 733 l 225 367 q 279 211 225 278 q 429 142 333 144 l 460 142 q 617 208 561 142 q 672 367 672 275 l 672 733 m 613 831 l 500 831 l 285 1163 l 458 1163 l 613 831 z "},"ú":{"ha":899,"x_min":83,"x_max":815,"o":"m 613 1163 l 397 831 l 285 831 l 439 1163 l 613 1163 m 672 733 l 814 733 l 814 367 q 792 232 814 297 q 728 115 769 167 q 619 31 686 63 q 468 0 551 0 l 429 0 q 278 31 346 0 q 169 115 211 63 q 106 232 128 167 q 83 367 83 297 l 83 733 l 225 733 l 225 367 q 279 211 225 278 q 429 142 333 144 l 460 142 q 617 208 561 142 q 672 367 672 275 l 672 733 z "},"û":{"ha":899,"x_min":83,"x_max":815,"o":"m 672 733 l 814 733 l 814 367 q 792 232 814 297 q 728 115 769 167 q 619 31 686 63 q 468 0 551 0 l 429 0 q 278 31 346 0 q 169 115 211 63 q 106 232 128 167 q 83 367 83 297 l 83 733 l 225 733 l 225 367 q 279 211 225 278 q 429 142 333 144 l 460 142 q 617 208 561 142 q 672 367 672 275 l 672 733 m 449 1029 l 340 831 l 194 831 l 375 1163 l 522 1163 l 703 831 l 557 831 l 449 1029 z "},"ü":{"ha":899,"x_min":83,"x_max":815,"o":"m 625 831 l 485 831 l 485 972 l 625 972 l 625 831 m 672 733 l 814 733 l 814 367 q 792 232 814 297 q 728 115 769 167 q 619 31 686 63 q 468 0 551 0 l 429 0 q 278 31 346 0 q 169 115 211 63 q 106 232 128 167 q 83 367 83 297 l 83 733 l 225 733 l 225 367 q 279 211 225 278 q 429 142 333 144 l 460 142 q 617 208 561 142 q 672 367 672 275 l 672 733 m 414 831 l 272 831 l 272 972 l 414 972 l 414 831 z "},"Ă":{"ha":965,"x_min":89,"x_max":854,"o":"m 589 1118 q 565 1094 589 1118 q 472 1069 540 1069 q 354 1118 403 1069 q 306 1235 306 1167 l 369 1235 q 399 1163 369 1193 q 471 1133 429 1133 q 522 1147 499 1133 q 560 1183 546 1160 q 574 1235 574 1207 l 638 1235 q 589 1118 638 1167 m 526 972 l 854 972 l 854 0 l 713 0 l 713 415 l 351 415 l 351 557 l 713 557 l 713 831 l 526 831 q 401 803 457 831 q 307 730 344 776 q 250 621 269 683 q 231 486 231 558 l 231 0 l 89 0 l 89 486 q 142 731 89 621 q 295 906 194 840 q 526 972 396 972 z "},"ă":{"ha":897,"x_min":64,"x_max":797,"o":"m 549 879 q 524 855 549 879 q 431 831 500 831 q 314 879 363 831 q 265 997 265 928 l 329 997 q 359 924 329 954 q 431 894 389 894 q 482 908 458 894 q 519 946 506 922 q 533 997 533 969 l 597 997 q 549 879 597 928 m 654 733 l 796 733 l 796 0 l 411 0 q 260 31 328 0 q 151 115 193 63 q 88 233 110 167 q 65 367 65 299 q 88 502 65 436 q 151 619 110 568 q 260 702 193 671 q 411 733 328 733 l 533 733 l 533 593 l 419 593 q 302 559 351 593 q 230 475 253 525 q 207 367 207 425 q 230 258 207 308 q 302 175 253 208 q 419 142 351 142 l 654 142 l 654 733 z "},"Ć":{"ha":938,"x_min":61,"x_max":893,"o":"m 642 1401 l 426 1069 l 314 1069 l 467 1401 l 642 1401 m 305 242 q 355 192 305 242 q 549 142 406 142 q 792 243 692 142 l 892 143 q 736 38 825 75 q 549 0 647 0 q 305 65 417 0 q 128 242 193 131 q 63 486 63 354 q 128 730 63 618 q 305 907 193 842 q 549 972 417 972 q 736 935 647 972 q 892 829 825 897 l 792 729 q 549 831 692 831 q 376 785 456 831 q 250 659 296 739 q 204 486 204 579 q 305 242 204 343 z "},"ć":{"ha":740,"x_min":63,"x_max":690,"o":"m 540 1163 l 325 831 l 211 831 l 365 1163 l 540 1163 m 270 208 q 303 175 270 208 q 429 142 336 142 q 589 207 522 142 l 689 107 q 430 0 582 0 q 170 108 278 0 q 63 367 63 215 q 170 626 63 519 q 430 733 278 733 q 689 626 582 733 l 589 526 q 429 593 522 593 q 270 526 336 593 q 204 367 204 460 q 270 208 204 274 z "},"Ĉ":{"ha":938,"x_min":63,"x_max":893,"o":"m 478 1267 l 369 1069 l 222 1069 l 404 1401 l 551 1401 l 732 1069 l 586 1069 l 478 1267 m 549 142 q 792 243 692 142 l 892 143 q 736 38 825 75 q 549 0 647 0 q 305 65 417 0 q 128 242 193 131 q 63 486 63 354 q 101 675 63 585 q 204 831 139 765 q 360 934 269 896 q 549 972 450 972 q 736 935 647 972 q 892 829 825 897 l 792 729 q 549 831 692 831 q 305 730 406 831 q 204 486 204 629 q 250 313 204 393 q 376 188 296 233 q 549 142 456 142 z "},"ĉ":{"ha":740,"x_min":61,"x_max":690,"o":"m 376 1029 l 268 831 l 121 831 l 303 1163 l 449 1163 l 631 831 l 483 831 l 376 1029 m 270 208 q 303 175 270 208 q 429 142 336 142 q 589 207 522 142 l 689 107 q 430 0 582 0 q 170 108 278 0 q 63 367 63 215 q 170 626 63 519 q 430 733 278 733 q 689 626 582 733 l 589 526 q 429 593 522 593 q 270 526 336 593 q 204 367 204 460 q 270 208 204 274 z "},"Č":{"ha":938,"x_min":63,"x_max":893,"o":"m 550 1069 l 404 1069 l 222 1401 l 369 1401 l 478 1203 l 586 1401 l 732 1401 l 550 1069 m 305 242 q 355 192 305 242 q 549 142 406 142 q 792 243 692 142 l 892 143 q 736 38 825 75 q 549 0 647 0 q 305 65 417 0 q 128 242 193 131 q 63 486 63 354 q 128 730 63 618 q 305 907 193 842 q 549 972 417 972 q 736 935 647 972 q 892 829 825 897 l 792 729 q 549 831 692 831 q 305 730 406 831 q 204 486 204 629 q 305 242 204 343 z "},"č":{"ha":740,"x_min":63,"x_max":690,"o":"m 270 208 q 303 175 270 208 q 429 142 336 142 q 589 207 522 142 l 689 107 q 430 0 582 0 q 170 108 278 0 q 63 367 63 215 q 170 626 63 519 q 430 733 278 733 q 689 626 582 733 l 589 526 q 429 593 522 593 q 270 526 336 593 q 204 367 204 460 q 270 208 204 274 m 449 831 l 303 831 l 121 1163 l 268 1163 l 375 965 l 483 1163 l 631 1163 l 449 831 z "},"Đ":{"ha":1047,"x_min":46,"x_max":985,"o":"m 499 972 q 690 939 603 972 q 832 849 776 906 q 927 720 888 793 q 975 567 967 647 q 975 406 983 486 q 927 252 967 325 q 832 123 888 179 q 690 33 776 67 q 499 0 603 0 l 176 0 l 176 415 l 47 415 l 47 557 l 718 557 l 718 415 l 318 415 l 318 142 l 526 142 q 663 172 603 142 q 761 249 724 201 q 819 359 799 297 q 840 486 840 421 q 819 613 840 551 q 761 723 799 675 q 663 801 724 771 q 526 831 603 831 l 176 831 l 176 972 l 499 972 z "},"đ":{"ha":897,"x_min":64,"x_max":885,"o":"m 325 972 l 885 972 l 885 831 l 796 831 l 796 0 l 413 0 q 261 31 329 0 q 151 115 193 63 q 88 233 110 167 q 65 367 65 299 q 88 502 65 436 q 151 619 110 568 q 261 702 193 671 q 413 733 329 733 l 533 733 l 533 592 l 419 592 q 326 573 368 592 q 260 522 285 554 q 221 450 235 490 q 207 367 207 410 q 221 284 207 325 q 260 212 235 243 q 326 161 285 181 q 419 142 368 142 l 654 142 l 654 831 l 325 831 l 325 972 z "},"Ĕ":{"ha":875,"x_min":67,"x_max":792,"o":"m 429 1069 q 345 1092 383 1069 q 285 1152 307 1114 q 263 1235 263 1190 l 326 1235 q 356 1163 326 1193 q 428 1133 386 1133 q 501 1163 471 1133 q 531 1235 531 1193 l 594 1235 q 546 1118 594 1167 q 429 1069 497 1069 m 790 415 l 329 415 l 329 557 l 790 557 l 790 415 m 504 972 l 790 972 l 790 831 l 504 831 q 288 733 367 831 q 208 486 208 635 q 288 240 208 338 q 504 142 367 142 l 790 142 l 790 0 l 504 0 q 273 66 374 0 q 119 242 172 132 q 67 486 67 351 q 119 731 67 621 q 273 906 172 840 q 504 972 374 972 z "},"ĕ":{"ha":853,"x_min":63,"x_max":797,"o":"m 547 879 q 523 855 547 879 q 430 831 499 831 q 313 879 361 831 q 264 997 264 928 l 328 997 q 358 924 328 954 q 430 894 388 894 q 502 924 472 894 q 532 997 532 954 l 596 997 q 547 879 596 928 m 325 296 l 325 438 l 643 438 q 598 517 629 482 q 522 572 567 553 q 429 592 478 592 q 270 526 336 592 q 204 367 204 460 q 270 208 204 274 q 429 142 336 142 q 589 207 522 142 l 689 107 q 430 0 582 0 q 170 108 278 0 q 63 367 63 215 q 120 565 63 476 q 274 699 178 654 q 476 731 369 744 l 494 728 q 710 603 624 706 q 796 367 796 501 q 790 296 796 331 l 325 296 z "},"Ĝ":{"ha":1086,"x_min":63,"x_max":1035,"o":"m 549 1267 l 440 1069 l 294 1069 l 475 1401 l 622 1401 l 803 1069 l 657 1069 l 549 1267 m 1029 557 q 1035 486 1035 522 q 969 242 1035 354 q 792 65 904 131 q 549 0 681 0 q 305 65 417 0 q 128 242 193 131 q 63 486 63 354 q 101 675 63 585 q 204 831 139 765 q 360 934 269 896 q 549 972 450 972 q 678 955 615 972 q 794 906 740 938 q 892 829 849 874 l 792 729 q 549 831 692 831 q 376 785 456 831 q 250 659 296 739 q 204 486 204 579 q 305 242 204 343 q 549 142 406 142 q 767 219 672 142 q 886 415 861 297 l 549 415 l 549 557 l 1029 557 z "},"ĝ":{"ha":897,"x_min":64,"x_max":797,"o":"m 411 733 l 796 733 l 796 129 q 774 -6 796 58 q 710 -124 751 -71 q 601 -208 668 -176 q 450 -239 533 -239 l 65 -239 l 65 -97 l 450 -97 q 600 -28 546 -94 q 654 129 654 39 l 654 593 l 419 593 q 302 559 351 593 q 230 475 253 525 q 207 367 207 425 q 230 258 207 308 q 302 175 253 208 q 419 142 351 142 l 533 142 l 533 0 l 411 0 q 260 31 328 0 q 151 115 193 63 q 88 233 110 167 q 65 367 65 299 q 88 502 65 436 q 151 619 110 568 q 260 702 193 671 q 411 733 328 733 m 431 1029 l 322 831 l 176 831 l 357 1163 l 504 1163 l 685 831 l 539 831 l 431 1029 z "},"Ğ":{"ha":1086,"x_min":63,"x_max":1035,"o":"m 667 1118 q 642 1094 667 1118 q 549 1069 618 1069 q 431 1118 479 1069 q 382 1235 382 1167 l 447 1235 q 477 1163 447 1193 q 549 1133 507 1133 q 600 1147 576 1133 q 637 1183 624 1160 q 650 1235 650 1207 l 715 1235 q 667 1118 715 1167 m 1029 557 q 1035 486 1035 522 q 969 242 1035 354 q 792 65 904 131 q 549 0 681 0 q 305 65 417 0 q 128 242 193 131 q 63 486 63 354 q 128 730 63 618 q 305 907 193 842 q 549 972 417 972 q 736 935 647 972 q 892 829 825 897 l 792 729 q 549 831 692 831 q 305 730 406 831 q 204 486 204 629 q 305 242 204 343 q 549 142 406 142 q 767 219 672 142 q 886 415 861 297 l 549 415 l 549 557 l 1029 557 z "},"ğ":{"ha":897,"x_min":64,"x_max":797,"o":"m 411 733 l 796 733 l 796 129 q 783 19 796 72 q 741 -80 769 -33 q 672 -162 713 -126 q 574 -218 632 -197 q 450 -239 517 -239 l 65 -239 l 65 -97 l 450 -97 q 600 -28 546 -94 q 654 129 654 39 l 654 593 l 419 593 q 302 559 351 593 q 230 475 253 525 q 207 367 207 425 q 230 258 207 308 q 302 175 253 208 q 419 142 351 142 l 533 142 l 533 0 l 411 0 q 260 31 328 0 q 151 115 193 63 q 88 233 110 167 q 65 367 65 299 q 88 502 65 436 q 151 619 110 568 q 260 702 193 671 q 411 733 328 733 m 549 879 q 524 855 549 879 q 431 831 500 831 q 314 879 363 831 q 265 997 265 928 l 329 997 q 342 946 329 969 q 379 908 356 922 q 431 894 403 894 q 482 908 458 894 q 519 946 506 922 q 533 997 533 969 l 597 997 q 549 879 597 928 z "},"Ġ":{"ha":1086,"x_min":61,"x_max":1035,"o":"m 1029 557 q 1035 486 1035 522 q 969 242 1035 354 q 792 65 904 131 q 549 0 681 0 q 360 38 450 0 q 204 142 269 76 q 101 297 139 207 q 63 486 63 388 q 128 730 63 618 q 305 907 193 842 q 549 972 417 972 q 736 935 647 972 q 892 829 825 897 l 792 729 q 549 831 692 831 q 305 730 406 831 q 204 486 204 629 q 305 242 204 343 q 549 142 406 142 q 767 219 672 142 q 886 415 861 297 l 549 415 l 549 557 l 1029 557 m 619 1069 l 478 1069 l 478 1211 l 619 1211 l 619 1069 z "},"ġ":{"ha":897,"x_min":64,"x_max":797,"o":"m 501 831 l 360 831 l 360 972 l 501 972 l 501 831 m 411 733 l 796 733 l 796 129 q 774 -6 796 58 q 710 -124 751 -71 q 601 -208 668 -176 q 450 -239 533 -239 l 65 -239 l 65 -97 l 450 -97 q 600 -28 546 -94 q 654 129 654 39 l 654 593 l 419 593 q 302 559 351 593 q 230 475 253 525 q 207 367 207 425 q 230 258 207 308 q 302 175 253 208 q 419 142 351 142 l 533 142 l 533 0 l 411 0 q 260 31 328 0 q 151 115 193 63 q 88 233 110 167 q 65 367 65 299 q 88 502 65 436 q 151 619 110 568 q 260 702 193 671 q 411 733 328 733 z "},"Ĥ":{"ha":1051,"x_min":111,"x_max":942,"o":"m 253 972 l 253 557 l 678 557 l 678 415 l 253 415 l 253 0 l 111 0 l 111 972 l 253 972 m 453 1401 l 599 1401 l 781 1069 l 633 1069 l 526 1267 l 418 1069 l 271 1069 l 453 1401 m 940 0 l 799 0 l 799 972 l 940 972 l 940 0 z "},"ĥ":{"ha":915,"x_min":99,"x_max":832,"o":"m 535 1029 l 428 831 l 281 831 l 463 1163 l 608 1163 l 790 831 l 643 831 l 535 1029 m 485 733 q 635 702 568 733 q 744 619 703 671 q 808 502 786 567 q 831 367 831 438 l 831 0 l 689 0 l 689 367 q 633 526 689 458 q 476 593 578 593 l 446 593 l 446 592 q 333 557 381 590 q 264 474 286 524 q 242 367 242 425 l 242 0 l 100 0 l 100 972 l 242 972 l 242 671 q 446 733 328 733 l 485 733 z "},"Ĩ":{"ha":363,"x_min":-47,"x_max":408,"o":"m 251 0 l 111 0 l 111 972 l 251 972 l 251 0 m 353 1285 l 408 1194 q 346 1107 378 1135 q 285 1079 314 1079 q 228 1090 257 1079 q 173 1116 200 1101 q 120 1137 146 1131 q 67 1128 94 1143 q 15 1069 40 1113 l -46 1160 q 16 1236 -14 1210 q 69 1265 46 1263 q 117 1262 93 1268 q 163 1242 142 1256 q 207 1219 183 1228 q 252 1209 231 1211 q 299 1226 274 1207 q 353 1285 325 1244 z "},"ĩ":{"ha":343,"x_min":-57,"x_max":399,"o":"m 242 0 l 101 0 l 101 733 l 242 733 l 242 0 m 343 1047 l 399 956 q 336 869 368 897 q 276 842 304 842 q 219 853 247 842 q 163 878 190 864 q 110 899 136 892 q 58 890 85 906 q 6 831 31 874 l -56 922 q 14 1004 -19 978 q 74 1029 47 1031 q 127 1016 101 1028 q 178 990 153 1004 q 228 971 204 976 q 283 983 253 965 q 343 1047 313 1001 z "},"Ĭ":{"ha":364,"x_min":14,"x_max":349,"o":"m 253 0 l 111 0 l 111 972 l 253 972 l 253 0 m 283 1235 l 347 1235 q 299 1118 347 1167 q 181 1069 250 1069 q 64 1118 113 1069 q 15 1235 15 1167 l 79 1235 q 109 1163 79 1193 q 181 1133 139 1133 q 253 1163 224 1133 q 283 1235 283 1193 z "},"ĭ":{"ha":344,"x_min":6,"x_max":339,"o":"m 243 0 l 101 0 l 101 733 l 243 733 l 243 0 m 274 997 l 338 997 q 289 879 338 928 q 172 831 240 831 q 54 879 103 831 q 6 997 6 928 l 69 997 q 99 924 69 954 q 172 894 129 894 q 244 924 214 894 q 274 997 274 954 z "},"Ĵ":{"ha":743,"x_min":25,"x_max":831,"o":"m 506 367 l 506 972 l 647 972 l 647 367 q 625 232 647 297 q 560 115 603 167 q 451 31 518 63 q 300 0 383 0 l 25 0 l 25 142 l 300 142 q 451 211 397 144 q 506 367 506 278 m 649 1401 l 831 1069 l 683 1069 l 576 1267 l 468 1069 l 321 1069 l 503 1401 l 649 1401 z "},"ĵ":{"ha":350,"x_min":-97,"x_max":433,"o":"m 108 129 l 108 733 l 249 733 l 249 129 q 235 19 249 72 q 194 -80 222 -33 q 125 -162 165 -126 q 27 -218 85 -197 q -97 -239 -31 -239 l -97 -97 q 54 -28 0 -94 q 108 129 108 39 m 251 1163 l 433 831 l 286 831 l 179 1029 l 71 831 l -76 831 l 106 1163 l 251 1163 z "},"Ķ":{"ha":956,"x_min":111,"x_max":861,"o":"m 511 -239 l 415 -239 l 415 -97 l 557 -97 l 557 -253 q 533 -309 557 -285 q 460 -333 508 -333 l 415 -333 l 415 -287 l 460 -287 q 488 -283 476 -287 q 506 -270 500 -278 q 511 -253 511 -262 l 511 -239 m 861 782 q 827 616 861 694 q 729 486 793 538 q 827 356 793 435 q 861 190 861 278 l 861 0 l 719 0 l 719 190 q 697 297 719 247 q 627 380 675 346 q 514 415 579 414 l 253 415 l 253 0 l 111 0 l 111 972 l 253 972 l 253 557 l 514 557 q 665 626 611 560 q 719 782 719 693 l 719 972 l 861 972 l 861 782 z "},"ķ":{"ha":882,"x_min":100,"x_max":799,"o":"m 474 -239 l 378 -239 l 378 -97 l 519 -97 l 519 -253 q 495 -309 519 -285 q 424 -333 471 -333 l 378 -333 l 378 -287 l 424 -287 q 460 -278 447 -287 q 474 -253 474 -268 l 474 -239 m 799 640 q 767 485 799 557 q 676 367 736 414 q 744 292 717 336 q 785 199 772 249 q 799 94 799 149 l 799 0 l 657 0 l 657 94 q 635 195 657 151 q 565 267 613 239 q 451 296 518 294 l 242 296 l 242 0 l 100 0 l 100 972 l 242 972 l 242 438 l 451 438 q 603 497 550 440 q 657 640 657 553 l 657 733 l 799 733 l 799 640 z "},"Ł":{"ha":951,"x_min":38,"x_max":926,"o":"m 553 142 l 926 142 l 926 0 l 553 0 q 402 31 469 0 q 293 115 335 63 q 229 232 251 167 q 207 367 207 297 l 207 369 l 38 324 l 38 465 l 207 511 l 207 972 l 349 972 l 349 549 l 722 649 l 722 507 l 349 407 l 349 367 q 403 211 349 278 q 553 142 457 144 z "},"ł":{"ha":622,"x_min":44,"x_max":579,"o":"m 382 576 l 579 629 l 579 488 l 382 435 l 382 0 l 240 0 l 240 396 l 44 343 l 44 485 l 240 538 l 240 972 l 382 972 l 382 576 z "},"Ń":{"ha":985,"x_min":93,"x_max":890,"o":"m 656 1401 l 442 1069 l 328 1069 l 482 1401 l 656 1401 m 853 972 l 890 0 l 749 0 l 264 731 l 236 0 l 94 0 l 132 972 l 274 972 l 738 272 l 711 972 l 853 972 z "},"ń":{"ha":899,"x_min":83,"x_max":815,"o":"m 468 733 q 619 702 551 733 q 728 619 686 671 q 792 502 769 567 q 814 367 814 438 l 814 0 l 672 0 l 672 367 q 617 526 672 458 q 460 593 561 593 l 429 593 l 429 592 q 317 557 364 590 q 247 474 269 524 q 225 367 225 425 l 225 0 l 83 0 l 83 367 q 106 502 83 438 q 169 619 128 567 q 278 702 211 671 q 429 733 346 733 l 468 733 m 590 1163 l 375 831 l 263 831 l 417 1163 l 590 1163 z "},"Ņ":{"ha":985,"x_min":93,"x_max":890,"o":"m 421 -239 l 421 -97 l 563 -97 l 563 -253 q 538 -309 563 -285 q 467 -333 514 -333 l 421 -333 l 421 -287 l 467 -287 q 503 -278 490 -287 q 517 -253 517 -268 l 517 -239 l 421 -239 m 853 972 l 890 0 l 749 0 l 264 731 l 236 0 l 94 0 l 132 972 l 274 972 l 738 272 l 711 972 l 853 972 z "},"ņ":{"ha":899,"x_min":83,"x_max":815,"o":"m 378 -239 l 378 -97 l 519 -97 l 519 -253 q 495 -309 519 -285 q 424 -333 471 -333 l 378 -333 l 378 -287 l 424 -287 q 460 -278 447 -287 q 474 -253 474 -268 l 474 -239 l 378 -239 m 468 733 q 619 702 551 733 q 728 619 686 671 q 792 502 769 567 q 814 367 814 438 l 814 0 l 672 0 l 672 367 q 617 526 672 458 q 460 593 561 593 l 429 593 l 429 592 q 317 557 364 590 q 247 474 269 524 q 225 367 225 425 l 225 0 l 83 0 l 83 367 q 106 502 83 438 q 169 619 128 567 q 278 702 211 671 q 429 733 346 733 l 468 733 z "},"Ŏ":{"ha":1097,"x_min":63,"x_max":1035,"o":"m 667 1118 q 642 1094 667 1118 q 549 1069 618 1069 q 431 1118 479 1069 q 382 1235 382 1167 l 447 1235 q 477 1163 447 1193 q 549 1133 507 1133 q 620 1163 590 1133 q 650 1235 650 1193 l 715 1235 q 667 1118 715 1167 m 305 907 q 361 940 305 907 q 549 972 417 972 q 792 907 681 972 q 969 730 904 842 q 1035 486 1035 618 q 969 242 1035 354 q 792 65 904 131 q 549 0 681 0 q 305 65 417 0 q 128 242 193 131 q 63 486 63 354 q 128 730 63 618 q 305 907 193 842 m 549 142 q 722 188 642 142 q 847 313 801 233 q 893 486 893 393 q 792 730 893 629 q 549 831 692 831 q 305 730 406 831 q 204 486 204 629 q 305 242 204 343 q 549 142 406 142 z "},"ŏ":{"ha":860,"x_min":63,"x_max":797,"o":"m 547 879 q 523 855 547 879 q 430 831 499 831 q 313 879 361 831 q 264 997 264 928 l 328 997 q 358 924 328 954 q 430 894 388 894 q 502 924 472 894 q 532 997 532 954 l 596 997 q 547 879 596 928 m 170 626 q 224 680 170 626 q 430 733 278 733 q 689 626 582 733 q 796 367 796 519 q 689 108 796 215 q 430 0 582 0 q 170 108 278 0 q 63 367 63 215 q 170 626 63 519 m 270 208 q 303 175 270 208 q 429 142 336 142 q 589 208 522 142 q 656 367 656 274 q 589 526 656 460 q 429 593 522 593 q 270 526 336 593 q 204 367 204 460 q 270 208 204 274 z "},"Œ":{"ha":1700,"x_min":63,"x_max":1618,"o":"m 1618 415 l 1156 415 l 1156 557 l 1618 557 l 1618 415 m 1331 972 l 1618 972 l 1618 831 l 1331 831 q 1114 733 1193 831 q 1035 486 1035 635 q 1114 240 1035 338 q 1331 142 1193 142 l 1618 142 l 1618 0 l 1331 0 q 1109 60 1206 0 q 957 222 1013 119 q 783 60 890 119 q 549 0 675 0 q 305 65 417 0 q 128 242 193 131 q 63 486 63 354 q 101 675 63 585 q 204 831 139 765 q 360 934 269 896 q 549 972 450 972 q 783 913 675 972 q 957 750 890 853 q 1109 913 1013 853 q 1331 972 1206 972 m 305 242 q 355 192 305 242 q 549 142 406 142 q 792 242 692 142 q 893 486 893 343 q 792 730 893 629 q 549 831 692 831 q 376 785 456 831 q 250 659 296 739 q 204 486 204 579 q 305 242 204 343 z "},"œ":{"ha":1444,"x_min":63,"x_max":1389,"o":"m 918 296 l 918 438 l 1236 438 q 1155 549 1214 506 q 1022 593 1096 593 q 863 526 929 593 q 796 367 796 460 q 862 208 796 274 q 1022 142 928 142 q 1182 207 1115 142 l 1282 107 q 1022 0 1174 0 q 854 40 932 0 q 725 150 776 81 q 597 40 675 81 q 429 0 519 0 q 170 108 278 0 q 63 367 63 215 q 170 626 63 519 q 429 733 278 733 q 597 693 519 733 q 725 583 675 653 q 875 703 783 663 q 1068 731 967 744 l 1086 728 q 1303 603 1217 706 q 1389 367 1389 501 q 1382 296 1389 331 l 918 296 m 270 208 q 303 175 270 208 q 429 142 336 142 q 589 208 522 142 q 656 367 656 274 q 589 526 656 460 q 429 593 522 593 q 270 526 336 593 q 204 367 204 460 q 270 208 204 274 z "},"Ŕ":{"ha":967,"x_min":111,"x_max":874,"o":"m 656 1401 l 440 1069 l 328 1069 l 482 1401 l 656 1401 m 739 486 q 872 278 872 429 l 872 0 l 731 0 l 731 278 q 685 375 731 335 q 575 415 639 415 l 374 415 l 374 557 l 575 557 q 653 575 617 557 q 710 625 689 593 q 731 694 731 657 q 685 790 731 750 q 575 831 639 831 l 253 831 l 253 0 l 111 0 l 111 972 l 594 972 q 791 890 710 972 q 872 694 872 808 q 739 486 872 543 z "},"ŕ":{"ha":650,"x_min":85,"x_max":615,"o":"m 514 1163 l 299 831 l 186 831 l 340 1163 l 514 1163 m 431 733 l 615 733 l 615 593 l 431 593 l 431 592 q 280 532 333 589 q 226 388 226 475 l 226 0 l 85 0 l 85 388 q 122 559 85 482 q 240 685 160 636 q 431 733 319 733 z "},"Ŗ":{"ha":967,"x_min":110,"x_max":874,"o":"m 421 -239 l 421 -97 l 563 -97 l 563 -253 q 538 -309 563 -285 q 467 -333 514 -333 l 421 -333 l 421 -287 l 467 -287 q 503 -278 490 -287 q 517 -253 517 -268 l 517 -239 l 421 -239 m 739 486 q 872 278 872 429 l 872 0 l 731 0 l 731 278 q 685 375 731 335 q 575 415 639 415 l 374 415 l 374 557 l 575 557 q 685 597 639 557 q 731 694 731 638 q 685 790 731 750 q 575 831 639 831 l 253 831 l 253 0 l 111 0 l 111 972 l 594 972 q 791 890 710 972 q 872 694 872 808 q 739 486 872 543 z "},"ŗ":{"ha":650,"x_min":85,"x_max":615,"o":"m 85 -239 l 85 -97 l 226 -97 l 226 -253 q 202 -309 226 -285 q 129 -333 178 -333 l 85 -333 l 85 -287 l 129 -287 q 167 -278 154 -287 q 181 -253 181 -268 l 181 -239 l 85 -239 m 431 733 l 615 733 l 615 593 l 431 593 l 431 592 q 280 532 333 589 q 226 388 226 475 l 226 0 l 85 0 l 85 388 q 122 559 85 482 q 240 685 160 636 q 431 733 319 733 z "},"Ś":{"ha":910,"x_min":67,"x_max":842,"o":"m 618 1401 l 403 1069 l 290 1069 l 444 1401 l 618 1401 m 371 831 q 294 815 328 831 q 244 776 261 800 q 219 724 226 753 q 219 665 211 694 q 244 611 226 635 q 294 572 261 588 q 371 557 328 557 l 539 557 q 731 499 654 557 q 825 360 808 442 q 824 197 842 278 q 733 58 806 115 q 558 0 660 0 l 74 0 l 74 142 l 539 142 q 614 157 581 142 q 665 196 647 172 q 690 249 682 219 q 690 308 699 278 q 665 361 682 338 q 614 400 647 385 q 539 415 581 415 l 371 415 q 177 473 254 415 q 84 613 100 531 q 86 776 68 694 q 176 915 104 857 q 351 972 249 972 l 836 972 l 836 831 l 371 831 z "},"ś":{"ha":749,"x_min":50,"x_max":697,"o":"m 538 1163 l 322 831 l 210 831 l 364 1163 l 538 1163 m 349 593 q 263 577 297 593 q 222 538 229 561 q 222 492 214 515 q 264 453 229 469 q 349 438 299 438 l 400 438 q 639 329 568 438 q 660 144 697 243 q 508 11 621 44 q 419 0 467 0 l 75 0 l 75 142 l 400 142 q 498 166 463 142 q 533 219 533 190 q 498 272 533 247 q 400 296 463 296 l 349 296 q 108 404 181 296 q 89 589 51 492 q 239 722 126 690 q 329 733 281 733 l 672 733 l 672 593 l 349 593 z "},"Ŝ":{"ha":910,"x_min":67,"x_max":842,"o":"m 454 1267 l 346 1069 l 200 1069 l 382 1401 l 528 1401 l 710 1069 l 563 1069 l 454 1267 m 371 831 q 294 815 328 831 q 244 776 261 800 q 219 724 226 753 q 219 665 211 694 q 244 611 226 635 q 294 572 261 588 q 371 557 328 557 l 539 557 q 731 499 654 557 q 825 360 808 442 q 824 197 842 278 q 733 58 806 115 q 558 0 660 0 l 74 0 l 74 142 l 539 142 q 615 157 581 142 q 665 196 649 172 q 690 249 682 219 q 690 308 699 278 q 665 361 682 338 q 615 400 649 385 q 539 415 581 415 l 371 415 q 177 473 254 415 q 84 613 100 531 q 86 776 68 694 q 176 915 104 857 q 351 972 249 972 l 836 972 l 836 831 l 371 831 z "},"ŝ":{"ha":749,"x_min":50,"x_max":697,"o":"m 374 1029 l 265 831 l 119 831 l 300 1163 l 447 1163 l 629 831 l 482 831 l 374 1029 m 349 593 q 263 577 297 593 q 222 538 229 561 q 222 492 214 515 q 264 453 229 469 q 349 438 299 438 l 400 438 q 639 329 568 438 q 660 144 697 243 q 508 11 621 44 q 419 0 467 0 l 75 0 l 75 142 l 400 142 q 498 166 463 142 q 533 219 533 190 q 498 272 533 247 q 400 296 463 296 l 349 296 q 108 404 181 296 q 89 589 51 492 q 240 722 126 690 q 329 733 281 733 l 672 733 l 672 593 l 349 593 z "},"Š":{"ha":910,"x_min":67,"x_max":842,"o":"m 528 1069 l 382 1069 l 200 1401 l 346 1401 l 454 1203 l 563 1401 l 710 1401 l 528 1069 m 371 831 q 294 815 328 831 q 244 776 261 800 q 219 724 226 753 q 219 665 211 694 q 244 611 226 635 q 294 572 261 588 q 371 557 328 557 l 539 557 q 731 499 654 557 q 825 360 808 442 q 824 197 842 278 q 733 58 806 115 q 558 0 660 0 l 74 0 l 74 142 l 539 142 q 615 157 581 142 q 665 196 649 172 q 690 249 682 219 q 690 308 699 278 q 665 361 682 338 q 615 400 649 385 q 539 415 581 415 l 371 415 q 177 473 254 415 q 84 613 100 531 q 86 776 68 694 q 176 915 104 857 q 351 972 249 972 l 836 972 l 836 831 l 371 831 z "},"š":{"ha":749,"x_min":50,"x_max":697,"o":"m 447 831 l 300 831 l 119 1163 l 265 1163 l 374 965 l 482 1163 l 629 1163 l 447 831 m 349 593 q 263 577 297 593 q 222 538 229 561 q 222 492 214 515 q 264 453 229 469 q 349 438 299 438 l 400 438 q 639 329 568 438 q 660 144 697 243 q 508 11 621 44 q 419 0 467 0 l 75 0 l 75 142 l 400 142 q 498 166 463 142 q 533 219 533 190 q 498 272 533 247 q 400 296 463 296 l 349 296 q 108 404 181 296 q 89 589 51 492 q 240 722 126 690 q 329 733 281 733 l 672 733 l 672 593 l 349 593 z "},"Ŭ":{"ha":982,"x_min":97,"x_max":885,"o":"m 608 1118 q 584 1094 608 1118 q 491 1069 560 1069 q 374 1118 422 1069 q 325 1235 325 1167 l 389 1235 q 419 1163 389 1193 q 491 1133 449 1133 q 563 1163 533 1133 q 593 1235 593 1193 l 657 1235 q 608 1118 657 1167 m 743 972 l 885 972 l 885 369 q 865 228 885 292 q 809 122 844 165 q 724 50 774 79 q 615 8 674 21 q 490 -6 557 -6 q 338 16 407 -6 q 213 81 268 38 q 128 199 158 125 q 97 369 97 274 l 97 972 l 239 972 l 239 369 q 260 261 239 308 q 317 188 281 214 q 397 149 353 161 q 490 136 440 136 q 567 144 531 136 q 635 169 603 151 q 692 213 668 186 q 729 279 715 239 q 743 369 743 319 l 743 972 z "},"ŭ":{"ha":899,"x_min":83,"x_max":815,"o":"m 567 879 q 542 855 567 879 q 449 831 518 831 q 332 879 381 831 q 283 997 283 928 l 347 997 q 377 924 347 954 q 449 894 407 894 q 522 924 492 894 q 551 997 551 954 l 615 997 q 567 879 615 928 m 672 733 l 814 733 l 814 367 q 792 232 814 297 q 728 115 769 167 q 619 31 686 63 q 468 0 551 0 l 429 0 q 278 31 346 0 q 169 115 211 63 q 106 232 128 167 q 83 367 83 297 l 83 733 l 225 733 l 225 367 q 279 211 225 278 q 429 142 333 144 l 460 142 q 617 208 561 142 q 672 367 672 275 l 672 733 z "},"Ŵ":{"ha":1356,"x_min":24,"x_max":1332,"o":"m 697 1267 l 589 1069 l 442 1069 l 624 1401 l 769 1401 l 951 1069 l 806 1069 l 697 1267 m 1167 972 l 1332 972 l 963 0 l 799 0 l 678 319 l 557 0 l 392 0 l 24 972 l 189 972 l 474 218 l 594 538 l 431 972 l 594 972 l 881 218 l 1167 972 z "},"ŵ":{"ha":1128,"x_min":29,"x_max":1097,"o":"m 564 1029 l 456 831 l 308 831 l 490 1163 l 636 1163 l 818 831 l 672 831 l 564 1029 m 932 733 l 1096 733 l 818 0 l 654 0 l 564 239 l 474 0 l 308 0 l 31 733 l 196 733 l 390 218 l 481 456 l 376 733 l 540 733 l 736 218 l 932 733 z "},"Ŷ":{"ha":888,"x_min":50,"x_max":838,"o":"m 696 972 l 838 972 l 838 792 q 813 638 838 706 q 744 525 789 569 q 642 454 700 481 q 514 419 585 428 l 514 0 l 374 0 l 374 419 q 245 454 303 428 q 143 525 188 481 q 74 638 99 569 q 50 792 50 706 l 50 972 l 192 972 l 192 792 q 213 683 192 729 q 269 609 233 636 q 349 569 306 582 q 443 557 393 557 q 519 565 483 557 q 588 590 556 572 q 644 635 621 608 q 682 701 668 661 q 696 792 696 742 l 696 972 m 443 1267 l 336 1069 l 189 1069 l 371 1401 l 517 1401 l 699 1069 l 551 1069 l 443 1267 z "},"ŷ":{"ha":915,"x_min":83,"x_max":815,"o":"m 449 1029 l 340 831 l 194 831 l 375 1163 l 522 1163 l 703 831 l 557 831 l 449 1029 m 429 0 q 278 31 346 0 q 169 115 211 63 q 106 232 128 167 q 83 367 83 297 l 83 733 l 225 733 l 225 367 q 279 211 225 278 q 429 142 333 144 l 551 142 l 551 0 l 429 0 m 672 733 l 814 733 l 814 129 q 792 -6 814 58 q 728 -123 769 -71 q 619 -207 686 -175 q 468 -239 551 -239 l 83 -239 l 83 -97 l 468 -97 q 618 -28 564 -94 q 672 129 672 39 l 672 733 z "},"Ź":{"ha":874,"x_min":50,"x_max":790,"o":"m 585 1401 l 369 1069 l 256 1069 l 410 1401 l 585 1401 m 790 831 q 701 430 790 607 q 463 142 611 253 l 790 142 l 790 0 l 50 0 l 50 142 q 262 192 156 142 q 454 331 368 243 q 594 551 540 419 q 649 831 649 683 l 50 831 l 50 972 l 790 972 l 790 831 z "},"ź":{"ha":853,"x_min":60,"x_max":771,"o":"m 579 1163 l 364 831 l 251 831 l 406 1163 l 579 1163 m 771 593 q 701 335 771 450 q 514 142 632 221 l 771 142 l 771 0 l 60 0 l 60 142 q 203 162 126 142 q 353 222 279 182 q 486 315 426 263 q 583 441 546 368 q 619 593 619 514 l 60 593 l 60 733 l 771 733 l 771 593 z "},"Ż":{"ha":874,"x_min":50,"x_max":790,"o":"m 490 1069 l 350 1069 l 350 1211 l 490 1211 l 490 1069 m 790 831 q 701 430 790 607 q 463 142 611 253 l 790 142 l 790 0 l 50 0 l 50 142 q 262 192 156 142 q 454 331 368 243 q 594 551 540 419 q 649 831 649 683 l 50 831 l 50 972 l 790 972 l 790 831 z "},"ż":{"ha":853,"x_min":58,"x_max":771,"o":"m 486 831 l 344 831 l 344 972 l 486 972 l 486 831 m 771 593 q 701 335 771 450 q 514 142 632 221 l 771 142 l 771 0 l 60 0 l 60 142 q 178 156 115 142 q 303 197 240 171 q 423 265 365 224 q 524 354 481 306 q 594 465 568 403 q 619 593 619 526 l 60 593 l 60 733 l 771 733 l 771 593 z "},"Ž":{"ha":874,"x_min":50,"x_max":790,"o":"m 493 1069 l 347 1069 l 165 1401 l 313 1401 l 419 1203 l 528 1401 l 675 1401 l 493 1069 m 790 831 q 701 430 790 607 q 463 142 611 253 l 790 142 l 790 0 l 50 0 l 50 142 q 262 192 156 142 q 454 331 368 243 q 594 551 540 419 q 649 831 649 683 l 50 831 l 50 972 l 790 972 l 790 831 z "},"ž":{"ha":853,"x_min":58,"x_max":771,"o":"m 489 831 l 342 831 l 160 1163 l 307 1163 l 415 965 l 524 1163 l 669 1163 l 489 831 m 771 593 q 701 335 771 450 q 514 142 632 221 l 771 142 l 771 0 l 60 0 l 60 142 q 178 156 115 142 q 303 197 240 171 q 423 265 365 224 q 524 354 481 306 q 594 465 568 403 q 619 593 619 526 l 60 593 l 60 733 l 771 733 l 771 593 z "},"؉":{"ha":988,"x_min":85,"x_max":911,"o":"m 415 972 l 563 972 l 301 0 l 156 0 l 415 972 m 226 831 l 85 831 l 85 972 l 226 972 l 226 831 m 633 0 l 492 0 l 492 142 l 633 142 l 633 0 m 911 0 l 769 0 l 769 142 l 911 142 l 911 0 z "},"؊":{"ha":1265,"x_min":85,"x_max":1189,"o":"m 417 972 l 563 972 l 301 0 l 156 0 l 417 972 m 226 831 l 85 831 l 85 972 l 226 972 l 226 831 m 911 0 l 769 0 l 769 142 l 911 142 l 911 0 m 633 0 l 492 0 l 492 142 l 633 142 l 633 0 m 1188 0 l 1046 0 l 1046 142 l 1188 142 l 1188 0 z "},"٪":{"ha":718,"x_min":85,"x_max":633,"o":"m 226 831 l 85 831 l 85 972 l 226 972 l 226 831 m 633 0 l 492 0 l 492 142 l 633 142 l 633 0 m 417 972 l 563 972 l 301 0 l 156 0 l 417 972 z "},"‖":{"ha":614,"x_min":111,"x_max":503,"o":"m 253 -210 l 111 -210 l 111 1182 l 253 1182 l 253 -210 m 503 -210 l 361 -210 l 361 1182 l 503 1182 l 503 -210 z "},"‘":{"ha":294,"x_min":76,"x_max":218,"o":"m 174 925 q 135 915 149 925 q 122 890 122 906 l 122 875 l 218 875 l 218 735 l 76 735 l 76 890 q 101 946 76 921 q 174 971 125 971 l 218 971 l 218 925 l 174 925 z "},"“":{"ha":522,"x_min":76,"x_max":446,"o":"m 76 892 q 101 947 76 922 q 174 972 125 972 l 218 972 l 218 926 l 174 926 q 135 917 149 926 q 122 892 122 907 l 122 876 l 218 876 l 218 735 l 76 735 l 76 892 m 400 926 q 363 917 376 926 q 350 892 350 907 l 350 876 l 446 876 l 446 736 l 304 736 l 304 892 q 328 947 304 922 q 400 972 353 972 l 446 972 l 446 926 l 400 926 z "},"†":{"ha":914,"x_min":81,"x_max":833,"o":"m 528 876 l 833 876 l 833 735 l 528 735 l 528 -210 l 386 -210 l 386 735 l 81 735 l 81 876 l 386 876 l 386 1182 l 528 1182 l 528 876 z "},"‡":{"ha":947,"x_min":97,"x_max":850,"o":"m 544 735 l 544 236 l 850 236 l 850 94 l 544 94 l 544 -210 l 403 -210 l 403 94 l 97 94 l 97 236 l 403 236 l 403 735 l 97 735 l 97 876 l 403 876 l 403 1182 l 544 1182 l 544 876 l 850 876 l 850 735 l 544 735 z "},"‰":{"ha":1672,"x_min":89,"x_max":1583,"o":"m 892 486 q 1039 415 978 486 q 1100 243 1100 343 q 1072 121 1100 176 q 997 33 1044 65 q 892 0 949 0 q 743 71 804 0 q 682 243 682 142 q 710 365 682 308 q 786 453 738 421 q 892 486 835 486 m 892 71 q 945 84 919 71 q 990 121 971 97 q 1019 176 1008 144 q 1031 243 1031 208 q 990 365 1031 314 q 892 415 949 415 q 822 392 854 415 q 772 330 790 369 q 753 243 753 290 q 793 121 753 171 q 892 71 833 71 m 507 729 q 479 607 507 663 q 403 519 451 551 q 299 486 356 486 q 150 557 211 486 q 89 728 89 628 q 150 901 89 829 q 298 972 211 972 q 446 901 385 972 q 507 729 507 829 m 200 607 q 220 582 200 607 q 298 557 240 557 q 396 607 356 557 q 436 729 436 657 q 418 816 436 776 q 368 878 400 856 q 299 901 336 901 q 200 851 240 901 q 160 728 160 800 q 200 607 160 657 m 1374 486 q 1522 415 1460 486 q 1583 242 1583 343 q 1522 71 1583 142 q 1374 0 1460 0 q 1226 71 1288 0 q 1164 243 1164 142 q 1181 337 1164 292 q 1226 415 1197 382 q 1292 467 1254 447 q 1374 486 1331 486 m 1276 121 q 1296 96 1276 121 q 1374 71 1317 71 q 1472 121 1431 71 q 1513 242 1513 171 q 1472 365 1513 314 q 1374 415 1431 415 q 1304 392 1336 415 q 1253 330 1272 369 q 1235 243 1235 290 q 1276 121 1235 171 m 651 972 l 799 972 l 538 0 l 392 0 l 651 972 z "},"‼":{"ha":581,"x_min":108,"x_max":472,"o":"m 250 0 l 108 0 l 108 142 l 250 142 l 250 0 m 250 238 l 108 238 l 108 972 l 250 972 l 250 238 m 471 238 l 329 238 l 329 972 l 471 972 l 471 238 m 471 0 l 329 0 l 329 142 l 471 142 l 471 0 z "},"‽":{"ha":763,"x_min":79,"x_max":674,"o":"m 389 0 l 249 0 l 249 142 l 389 142 l 389 0 m 393 972 q 500 953 451 972 q 581 903 549 935 q 637 831 614 872 q 666 744 660 790 q 669 653 672 699 q 643 565 665 607 q 589 491 621 524 q 505 438 557 458 q 389 415 453 418 l 389 238 l 247 238 l 247 831 l 79 831 l 79 972 l 393 972 m 389 557 q 493 603 456 561 q 531 693 531 644 q 493 783 531 742 q 389 831 456 825 l 389 557 z "},"⁰":{"ha":594,"x_min":88,"x_max":507,"o":"m 297 972 q 402 940 354 972 q 478 851 450 907 q 506 729 506 794 q 444 557 506 628 q 297 486 383 486 q 192 519 240 486 q 115 607 143 551 q 88 729 88 663 q 149 901 88 829 q 297 972 210 972 m 199 607 q 219 582 199 607 q 297 557 239 557 q 394 607 354 557 q 435 729 435 657 q 417 816 435 776 q 367 878 399 856 q 297 901 335 901 q 199 851 239 901 q 158 728 158 800 q 199 607 158 657 z "},"⁴":{"ha":550,"x_min":82,"x_max":467,"o":"m 171 724 l 465 724 l 465 486 l 394 486 l 394 653 l 82 653 l 163 972 l 233 972 l 171 724 z "},"⁵":{"ha":558,"x_min":88,"x_max":474,"o":"m 89 972 l 469 972 l 469 901 l 160 901 l 160 833 q 181 785 160 806 q 238 764 201 764 l 321 764 q 418 735 379 764 q 465 666 457 707 q 463 584 472 625 q 418 515 454 543 q 331 486 382 486 l 89 486 l 89 557 l 321 557 q 379 578 358 557 q 400 626 400 600 q 379 672 400 651 q 321 693 358 693 l 238 693 q 127 735 165 693 q 89 833 89 776 l 89 972 z "},"⁶":{"ha":575,"x_min":92,"x_max":508,"o":"m 338 800 q 470 722 433 800 q 469 565 507 643 q 347 486 432 486 l 231 486 q 129 533 167 486 q 92 643 92 579 l 92 833 q 128 931 92 890 q 240 972 165 972 l 456 972 l 456 901 l 240 901 q 183 881 204 901 q 163 833 163 861 l 163 643 q 183 583 163 608 q 240 557 204 557 l 338 557 q 394 584 374 557 q 415 643 415 611 q 394 702 415 675 q 338 729 374 729 l 217 729 l 217 800 l 338 800 z "},"⁷":{"ha":518,"x_min":75,"x_max":439,"o":"m 75 972 l 438 972 l 438 901 l 233 486 l 154 486 l 360 901 l 75 901 l 75 972 z "},"⁸":{"ha":576,"x_min":85,"x_max":490,"o":"m 413 728 q 466 682 447 713 q 484 619 485 651 q 469 556 483 586 q 423 506 456 525 q 346 486 390 486 l 229 486 q 152 506 185 486 q 106 556 119 525 q 91 619 92 586 q 109 682 90 651 q 163 728 128 713 q 103 788 122 747 q 92 870 85 829 q 138 942 99 911 q 239 972 176 972 l 336 972 q 438 942 399 972 q 483 870 476 911 q 472 788 490 829 q 413 728 453 747 m 239 901 q 190 888 210 901 q 165 853 169 874 q 165 813 160 833 q 190 778 169 793 q 239 764 210 764 l 336 764 q 393 785 372 764 q 414 833 414 807 q 393 880 414 858 q 336 901 372 901 l 239 901 m 336 557 q 393 578 372 557 q 414 626 414 600 q 393 672 414 651 q 336 693 372 693 l 239 693 q 205 688 219 693 q 181 672 190 682 q 166 650 171 663 q 161 625 161 638 q 166 600 161 613 q 181 578 171 588 q 205 563 190 568 q 239 557 219 557 l 336 557 z "},"⁹":{"ha":574,"x_min":83,"x_max":482,"o":"m 343 972 q 418 949 386 972 q 466 890 450 925 q 482 815 482 856 l 482 625 q 468 558 482 589 q 419 507 454 528 q 333 486 385 486 l 118 486 l 118 557 l 333 557 q 376 567 358 557 q 403 592 394 576 q 411 625 411 607 l 411 815 q 390 876 411 850 q 333 901 369 901 l 236 901 q 179 874 200 901 q 158 815 158 847 q 179 756 158 783 q 236 729 200 729 l 357 729 l 357 658 l 236 658 q 140 690 178 658 q 93 769 101 722 q 94 861 85 815 q 139 940 103 907 q 226 972 175 972 l 343 972 z "},"₦":{"ha":1161,"x_min":100,"x_max":1061,"o":"m 951 663 l 1060 663 l 1060 521 l 957 521 l 960 450 l 1060 450 l 1060 308 l 965 308 l 978 0 l 836 0 l 632 308 l 336 308 l 324 0 l 182 0 l 194 308 l 100 308 l 100 450 l 200 450 l 203 521 l 100 521 l 100 663 l 208 663 l 219 972 l 361 972 l 567 663 l 810 663 l 799 972 l 940 972 l 951 663 m 353 731 l 350 663 l 397 663 l 353 731 m 342 450 l 538 450 l 490 521 l 344 521 l 342 450 m 660 521 l 707 450 l 818 450 l 815 521 l 660 521 m 801 308 l 825 272 l 824 308 l 801 308 z "},"₧":{"ha":2347,"x_min":111,"x_max":2271,"o":"m 592 972 q 789 890 707 972 q 871 693 871 808 q 785 492 871 569 q 572 415 699 415 l 374 415 l 374 557 l 572 557 q 683 597 638 557 q 729 694 729 638 q 683 790 729 750 q 572 831 638 831 l 253 831 l 253 0 l 111 0 l 111 972 l 592 972 m 1547 415 l 1238 415 l 1238 557 l 1547 557 l 1547 415 m 1921 592 q 1837 576 1871 592 q 1794 538 1803 560 q 1794 492 1786 515 q 1837 453 1803 469 q 1921 438 1871 438 l 1974 438 q 2213 329 2140 438 q 2233 144 2269 242 q 2082 11 2194 43 q 1993 0 2040 0 l 1321 0 q 1170 31 1238 0 q 1060 115 1103 63 q 996 231 1018 167 q 974 367 974 296 l 974 972 l 1115 972 l 1115 367 q 1169 210 1115 276 q 1321 142 1224 144 l 1974 142 q 2070 166 2035 142 q 2106 219 2106 190 q 2070 272 2106 247 q 1974 296 2035 296 l 1921 296 q 1682 404 1754 296 q 1661 589 1625 492 q 1813 722 1700 690 q 1901 733 1854 733 l 2246 733 l 2246 592 l 1921 592 z "},"₨":{"ha":1656,"x_min":111,"x_max":1579,"o":"m 1229 592 q 1132 568 1167 592 q 1097 515 1097 544 q 1133 462 1097 486 q 1229 438 1168 438 l 1282 438 q 1521 329 1449 438 q 1542 144 1578 242 q 1390 11 1503 43 q 1301 0 1349 0 l 957 0 l 957 142 l 1282 142 q 1378 166 1343 142 q 1414 219 1414 190 q 1378 272 1414 247 q 1282 296 1343 296 l 1229 296 q 990 404 1063 296 q 969 589 933 492 q 1121 722 1008 690 q 1210 733 1163 733 l 1554 733 l 1554 592 l 1229 592 m 872 693 q 739 486 872 543 q 872 278 872 429 l 872 0 l 731 0 l 731 278 q 685 375 731 335 q 575 415 639 415 l 374 415 l 374 557 l 575 557 q 653 575 617 557 q 710 625 689 593 q 731 693 731 657 q 685 790 731 750 q 575 831 639 831 l 253 831 l 253 0 l 111 0 l 111 972 l 594 972 q 791 890 710 972 q 872 693 872 808 z "},"₩":{"ha":1508,"x_min":100,"x_max":1408,"o":"m 1408 972 l 1290 663 l 1408 663 l 1408 521 l 1238 521 l 1210 450 l 1408 450 l 1408 308 l 1157 308 l 1039 0 l 875 0 l 757 308 l 750 308 l 633 0 l 468 0 l 351 308 l 100 308 l 100 450 l 297 450 l 271 521 l 100 521 l 100 663 l 217 663 l 100 972 l 265 972 l 382 663 l 624 663 l 507 972 l 671 972 l 789 663 l 1126 663 l 1243 972 l 1408 972 m 550 218 l 585 308 l 515 308 l 550 218 m 639 450 l 665 521 l 436 521 l 463 450 l 639 450 m 957 218 l 992 308 l 922 308 l 957 218 m 1046 450 l 1072 521 l 842 521 l 869 450 l 1046 450 z "},"€":{"ha":1143,"x_min":93,"x_max":1056,"o":"m 711 142 q 954 242 854 142 l 1056 142 q 899 38 988 75 q 711 0 810 0 q 435 85 558 0 q 258 308 313 171 l 94 308 l 94 450 l 226 450 q 225 486 225 468 q 226 521 225 504 l 94 521 l 94 663 l 258 663 q 435 886 313 800 q 711 972 558 972 q 899 935 810 972 q 1056 829 988 897 l 954 729 q 711 831 854 831 q 540 785 618 831 q 415 663 461 739 l 819 663 l 819 521 l 368 521 q 367 486 367 504 q 368 450 367 468 l 819 450 l 819 308 l 415 308 q 540 187 461 232 q 711 142 618 142 z "},"₭":{"ha":1201,"x_min":89,"x_max":1113,"o":"m 1111 557 l 1111 415 l 908 415 q 975 190 975 318 l 975 0 l 833 0 l 833 190 q 779 346 833 279 q 628 415 725 413 l 367 415 l 367 0 l 225 0 l 225 415 l 89 415 l 89 557 l 225 557 l 225 972 l 367 972 l 367 557 l 628 557 q 779 626 725 560 q 833 782 833 692 l 833 972 l 975 972 l 975 782 q 908 557 975 654 l 1111 557 z "},"₸":{"ha":899,"x_min":86,"x_max":813,"o":"m 86 708 l 813 708 l 813 568 l 519 568 l 519 0 l 378 0 l 378 568 l 86 568 l 86 708 m 813 831 l 86 831 l 86 972 l 813 972 l 813 831 z "},"℅":{"ha":1308,"x_min":88,"x_max":1221,"o":"m 453 607 l 503 557 q 331 486 431 486 q 159 557 231 486 q 88 728 88 628 q 159 901 88 829 q 331 972 231 972 q 503 901 431 972 l 453 851 q 331 901 401 901 q 244 878 283 901 q 181 815 204 856 q 158 729 158 775 q 209 607 158 657 q 331 557 260 557 q 453 607 401 557 m 805 415 q 841 450 805 415 q 977 486 876 486 q 1149 415 1078 486 q 1219 242 1219 343 q 1149 71 1219 142 q 977 0 1078 0 q 805 71 876 0 q 733 242 733 142 q 805 415 733 343 m 855 121 q 880 96 855 121 q 977 71 906 71 q 1099 121 1049 71 q 1149 242 1149 171 q 1099 365 1149 314 q 977 415 1049 415 q 855 365 906 415 q 804 242 804 314 q 855 121 804 171 m 697 972 l 843 972 l 583 0 l 436 0 l 697 972 z "},"℗":{"ha":1164,"x_min":94,"x_max":1068,"o":"m 632 729 q 731 688 690 729 q 772 590 772 647 q 729 489 772 528 q 622 450 686 450 l 524 450 l 524 521 l 622 521 q 678 541 656 521 q 701 590 701 561 q 678 638 701 618 q 622 658 656 658 l 463 658 l 463 243 l 392 243 l 392 729 l 632 729 m 338 907 q 394 940 338 907 q 582 972 450 972 q 826 907 714 972 q 1003 730 938 842 q 1068 486 1068 618 q 1003 242 1068 354 q 826 65 938 129 q 582 0 714 0 q 338 65 450 0 q 161 242 226 129 q 96 486 96 354 q 161 730 96 618 q 338 907 226 842 m 582 71 q 790 126 694 71 q 942 278 886 182 q 997 486 997 374 q 942 694 997 599 q 790 846 886 790 q 582 901 694 901 q 288 780 410 901 q 167 486 167 658 q 288 192 167 314 q 582 71 410 71 z "},"™":{"ha":1068,"x_min":74,"x_max":978,"o":"m 935 972 l 978 486 l 907 486 l 876 836 l 764 606 l 822 486 l 744 486 l 574 836 l 542 486 l 471 486 l 514 972 l 585 972 l 725 686 l 864 972 l 935 972 m 290 486 l 219 486 l 219 840 l 290 840 l 290 486 m 436 901 l 74 901 l 74 972 l 436 972 l 436 901 z "},"⅍":{"ha":1267,"x_min":93,"x_max":1176,"o":"m 940 415 q 890 401 910 415 q 865 367 869 388 q 865 327 861 347 q 890 292 869 307 q 940 278 910 278 l 1024 278 q 1120 249 1082 278 q 1167 180 1158 221 q 1166 98 1175 139 q 1121 28 1157 57 q 1033 0 1085 0 l 792 0 l 792 71 l 1024 71 q 1081 92 1060 71 q 1101 140 1101 114 q 1081 186 1101 165 q 1024 207 1060 207 l 940 207 q 843 236 882 207 q 797 306 804 265 q 798 388 789 347 q 843 458 807 429 q 931 486 879 486 l 1172 486 l 1172 415 l 940 415 m 476 972 l 476 486 l 406 486 l 406 693 l 226 693 l 226 764 l 406 764 l 406 901 l 314 901 q 205 852 244 901 q 165 729 165 803 l 165 486 l 94 486 l 94 729 q 155 902 94 832 q 314 972 215 972 l 476 972 m 718 972 l 865 972 l 604 0 l 458 0 l 718 972 z "},"⅓":{"ha":1022,"x_min":78,"x_max":929,"o":"m 282 486 l 211 486 l 211 836 q 192 883 211 864 q 147 901 174 901 l 78 901 l 78 972 l 147 972 q 242 933 203 972 q 282 836 282 893 l 282 486 m 863 243 q 929 139 929 214 q 888 41 929 82 q 790 0 847 0 l 585 0 l 585 71 l 781 71 q 835 91 813 71 q 858 139 858 111 q 835 187 858 167 q 781 207 813 207 l 692 207 l 692 278 l 781 278 q 819 288 801 278 q 848 313 838 297 q 858 347 858 328 q 848 381 858 365 q 819 406 838 397 q 781 415 801 415 l 585 415 l 585 486 l 790 486 q 888 445 847 486 q 929 347 929 404 q 863 243 929 271 m 481 972 l 626 972 l 367 0 l 219 0 l 481 972 z "},"⅔":{"ha":1233,"x_min":92,"x_max":1142,"o":"m 325 764 q 376 778 356 764 q 400 813 396 793 q 400 853 404 833 q 376 888 396 874 q 325 901 356 901 l 93 901 l 93 972 l 335 972 q 458 903 421 972 q 458 763 496 833 q 325 693 421 693 l 242 693 q 185 673 206 693 q 164 625 164 653 l 164 557 l 474 557 l 474 486 l 93 486 l 93 625 q 131 723 93 682 q 242 764 169 764 l 325 764 m 693 972 l 839 972 l 578 0 l 432 0 l 693 972 m 1074 243 q 1142 139 1142 214 q 1101 41 1142 82 q 1001 0 1060 0 l 797 0 l 797 71 l 992 71 q 1048 91 1025 71 q 1071 139 1071 111 q 1048 187 1071 167 q 992 207 1025 207 l 903 207 l 903 278 l 992 278 q 1023 283 1008 278 q 1048 298 1038 289 q 1065 320 1058 307 q 1071 347 1071 333 q 1060 381 1071 365 q 1032 406 1050 397 q 992 415 1014 415 l 797 415 l 797 486 l 1001 486 q 1101 445 1060 486 q 1142 347 1142 404 q 1074 243 1142 271 z "},"⅛":{"ha":1050,"x_min":78,"x_max":961,"o":"m 282 486 l 211 486 l 211 836 q 192 883 211 864 q 147 901 174 901 l 78 901 l 78 972 l 147 972 q 242 933 203 972 q 282 836 282 893 l 282 486 m 883 242 q 938 196 918 226 q 956 133 957 165 q 940 69 954 100 q 894 19 926 39 q 817 0 861 0 l 700 0 q 623 19 656 0 q 576 69 590 39 q 562 133 563 100 q 580 196 561 165 q 633 242 599 226 q 574 302 593 261 q 563 384 556 343 q 609 456 571 425 q 710 486 647 486 l 807 486 q 908 456 869 486 q 954 384 947 425 q 942 302 961 343 q 883 242 924 261 m 710 415 q 653 394 674 415 q 632 347 632 372 q 653 299 632 321 q 710 278 674 278 l 807 278 q 864 299 843 278 q 885 347 885 321 q 864 394 885 372 q 807 415 843 415 l 710 415 m 807 71 q 856 85 836 71 q 881 119 876 99 q 881 159 886 139 q 856 193 876 179 q 807 207 836 207 l 710 207 q 653 186 674 207 q 632 140 632 165 q 653 92 632 114 q 710 71 674 71 l 807 71 m 481 972 l 626 972 l 367 0 l 219 0 l 481 972 z "},"⅜":{"ha":1181,"x_min":88,"x_max":1092,"o":"m 433 625 q 392 527 433 568 q 294 486 351 486 l 89 486 l 89 557 l 285 557 q 340 577 317 557 q 363 625 363 597 q 340 673 363 653 q 285 693 317 693 l 196 693 l 196 764 l 285 764 q 340 784 317 764 q 363 833 363 804 q 352 867 363 851 q 324 892 342 883 q 285 901 306 901 l 89 901 l 89 972 l 294 972 q 392 931 351 972 q 433 833 433 890 q 367 729 433 757 q 433 625 433 700 m 1014 242 q 1067 196 1049 226 q 1085 133 1086 165 q 1071 69 1085 100 q 1024 19 1057 39 q 947 0 992 0 l 831 0 q 753 19 786 0 q 707 69 721 39 q 692 133 693 100 q 710 196 692 165 q 764 242 729 226 q 705 302 724 261 q 693 384 686 343 q 739 456 700 425 q 840 486 778 486 l 938 486 q 1039 456 1000 486 q 1085 384 1078 425 q 1073 302 1092 343 q 1014 242 1054 261 m 840 415 q 783 394 804 415 q 763 347 763 372 q 783 299 763 321 q 840 278 804 278 l 938 278 q 994 299 974 278 q 1015 347 1015 321 q 994 394 1015 372 q 938 415 974 415 l 840 415 m 938 71 q 994 92 974 71 q 1015 140 1015 114 q 994 186 1015 165 q 938 207 974 207 l 840 207 q 783 186 804 207 q 763 140 763 165 q 783 92 763 114 q 840 71 804 71 l 938 71 m 611 972 l 757 972 l 497 0 l 350 0 l 611 972 z "},"⅝":{"ha":1215,"x_min":92,"x_max":1128,"o":"m 325 764 q 422 735 383 764 q 469 666 461 707 q 467 584 476 625 q 422 515 458 543 q 335 486 386 486 l 93 486 l 93 557 l 325 557 q 383 578 363 557 q 404 626 404 600 q 383 672 404 651 q 325 693 363 693 l 242 693 q 131 735 169 693 q 93 833 93 776 l 93 972 l 474 972 l 474 901 l 164 901 l 164 833 q 185 785 164 806 q 242 764 206 764 l 325 764 m 1049 242 q 1103 196 1085 226 q 1122 133 1122 165 q 1107 69 1121 100 q 1060 19 1093 39 q 983 0 1028 0 l 867 0 q 790 19 822 0 q 743 69 757 39 q 728 133 729 100 q 746 196 726 165 q 800 242 765 226 q 741 302 760 261 q 729 384 722 343 q 775 456 736 425 q 876 486 814 486 l 974 486 q 1074 456 1036 486 q 1120 384 1113 425 q 1109 302 1128 343 q 1049 242 1090 261 m 876 415 q 827 401 847 415 q 802 367 807 388 q 802 327 797 347 q 827 292 807 307 q 876 278 847 278 l 974 278 q 1031 299 1010 278 q 1051 347 1051 321 q 1031 394 1051 372 q 974 415 1010 415 l 876 415 m 974 71 q 1023 85 1003 71 q 1048 119 1043 99 q 1048 159 1053 139 q 1023 193 1043 179 q 974 207 1003 207 l 876 207 q 819 186 839 207 q 799 140 799 165 q 819 92 799 114 q 876 71 839 71 l 974 71 m 647 972 l 793 972 l 533 0 l 386 0 l 647 972 z "},"⅞":{"ha":1126,"x_min":79,"x_max":1039,"o":"m 557 972 l 704 972 l 443 0 l 296 0 l 557 972 m 442 972 l 442 901 l 238 486 l 158 486 l 364 901 l 79 901 l 79 972 l 442 972 m 960 242 q 1014 196 994 226 q 1033 133 1033 165 q 1018 69 1032 100 q 971 19 1004 39 q 893 0 938 0 l 776 0 q 700 19 733 0 q 653 69 667 39 q 638 133 639 100 q 657 196 638 165 q 711 242 676 226 q 651 302 669 261 q 640 384 632 343 q 685 456 647 425 q 786 486 724 486 l 883 486 q 985 456 946 486 q 1031 384 1024 425 q 1019 302 1038 343 q 960 242 1000 261 m 786 415 q 737 401 757 415 q 712 367 717 388 q 712 327 707 347 q 737 292 717 307 q 786 278 757 278 l 883 278 q 942 299 921 278 q 963 347 963 321 q 942 394 963 372 q 883 415 921 415 l 786 415 m 883 71 q 933 85 913 71 q 958 119 953 99 q 958 159 963 139 q 934 193 954 179 q 883 207 914 207 l 786 207 q 729 186 750 207 q 708 140 708 165 q 729 92 708 114 q 786 71 750 71 l 883 71 z "},"∏":{"ha":1046,"x_min":111,"x_max":935,"o":"m 111 1182 l 935 1182 l 935 -210 l 793 -210 l 793 1040 l 253 1040 l 253 -210 l 111 -210 l 111 1182 z "},"≠":{"ha":904,"x_min":96,"x_max":808,"o":"m 807 557 l 544 557 l 506 415 l 807 415 l 807 274 l 468 274 l 394 0 l 249 0 l 322 274 l 96 274 l 96 415 l 360 415 l 397 557 l 96 557 l 96 699 l 435 699 l 508 972 l 656 972 l 582 699 l 807 699 l 807 557 z "},"≤":{"ha":1063,"x_min":85,"x_max":971,"o":"m 969 -210 l 85 -210 l 85 -68 l 969 -68 l 969 -210 m 969 863 l 969 715 l 293 486 l 969 257 l 969 110 l 85 410 l 85 561 l 969 863 z "},"≥":{"ha":1063,"x_min":92,"x_max":978,"o":"m 92 863 l 976 561 l 976 410 l 92 110 l 92 257 l 768 486 l 92 715 l 92 863 m 976 -210 l 92 -210 l 92 -68 l 976 -68 l 976 -210 z "},"":{"ha":1100,"x_min":19,"x_max":1081,"o":"m 371 142 l 850 142 l 550 793 l 185 0 l 19 0 l 468 972 l 632 972 l 1081 0 l 1015 0 l 371 0 l 371 142 z "},"":{"ha":842,"x_min":67,"x_max":792,"o":"m 504 831 q 288 733 367 831 q 208 486 208 635 q 288 240 208 338 q 504 142 367 142 l 790 142 l 790 0 l 504 0 q 273 66 374 0 q 119 242 172 132 q 67 486 67 351 q 119 731 67 621 q 273 906 172 840 q 504 972 374 972 l 790 972 l 790 831 l 504 831 z "},"":{"ha":822,"x_min":49,"x_max":774,"o":"m 49 972 l 772 972 l 772 831 l 49 831 l 49 972 m 49 142 l 772 142 l 772 0 l 49 0 l 49 142 m 49 557 l 772 557 l 772 415 l 49 415 l 49 557 z "},"":{"ha":836,"x_min":71,"x_max":796,"o":"m 71 972 l 794 972 l 794 831 l 71 831 l 71 972 m 342 557 l 794 557 l 794 415 l 342 415 q 250 378 288 415 q 213 286 213 340 l 71 286 q 150 478 71 399 q 342 557 229 557 m 71 0 l 71 286 l 213 286 l 213 0 l 71 0 z "},"":{"ha":960,"x_min":67,"x_max":863,"o":"m 504 831 q 288 733 367 831 q 208 486 208 635 q 242 313 208 390 q 344 188 276 235 q 504 142 413 142 l 721 142 l 721 415 l 504 415 l 504 557 l 861 557 l 861 0 l 504 0 q 273 66 374 0 q 119 242 172 132 q 67 486 67 351 q 119 731 67 621 q 273 906 172 840 q 504 972 374 972 l 861 972 l 861 831 l 504 831 z "},"":{"ha":929,"x_min":111,"x_max":861,"o":"m 111 972 l 253 972 l 253 235 l 696 972 l 861 972 l 606 546 q 794 416 728 517 q 861 190 861 315 l 861 0 l 719 0 l 719 190 q 669 342 719 276 q 525 414 618 408 l 276 0 l 111 0 l 111 972 z "},"":{"ha":1292,"x_min":89,"x_max":1201,"o":"m 232 499 l 232 0 l 90 0 l 90 535 l 92 535 q 246 862 103 746 q 645 978 389 978 q 1045 862 901 978 q 1200 535 1189 746 l 1201 535 l 1201 0 l 1060 0 l 1060 499 q 1010 684 1060 608 q 867 798 960 760 q 646 836 775 836 q 424 798 517 836 q 282 683 332 760 q 232 499 232 607 m 717 664 l 717 0 l 575 0 l 575 664 l 717 664 z "},"":{"ha":985,"x_min":99,"x_max":886,"o":"m 886 603 l 886 0 l 744 0 l 744 603 q 724 711 744 664 q 667 785 703 758 q 587 824 631 811 q 492 836 543 836 q 398 824 442 836 q 318 785 354 811 q 261 711 282 758 q 240 603 240 664 l 240 0 l 99 0 l 99 603 q 129 773 99 699 q 215 891 160 847 q 339 956 269 935 q 492 978 408 978 q 646 956 576 978 q 770 891 715 935 q 856 773 825 847 q 886 603 886 699 z "},"":{"ha":965,"x_min":111,"x_max":876,"o":"m 438 142 q 656 240 576 142 q 735 486 735 338 l 735 972 l 876 972 l 876 486 q 824 242 876 351 q 669 66 771 132 q 438 0 568 0 l 111 0 l 111 972 l 253 972 l 253 142 l 438 142 z "},"":{"ha":1289,"x_min":89,"x_max":1200,"o":"m 231 978 l 231 479 q 340 229 231 317 q 644 142 449 142 q 949 229 839 142 q 1058 479 1058 317 l 1058 978 l 1200 978 l 1200 444 l 1199 444 q 1044 117 1188 233 q 644 0 900 0 q 244 117 388 0 q 90 444 101 233 l 89 444 l 89 978 l 231 978 m 715 978 l 715 315 l 574 315 l 574 978 l 715 978 z "},"":{"ha":1086,"x_min":50,"x_max":1024,"o":"m 538 972 q 781 907 669 972 q 958 730 893 842 q 1024 486 1024 618 q 958 242 1024 354 q 781 65 893 131 q 538 0 669 0 q 435 11 481 0 l 435 157 q 538 142 485 142 q 781 242 681 142 q 882 486 882 343 q 781 730 882 629 q 538 831 681 831 q 294 729 394 831 q 193 486 193 628 q 208 382 193 432 l 63 382 q 51 486 51 435 q 117 730 51 618 q 294 907 182 842 q 538 972 406 972 z "},"":{"ha":1815,"x_min":67,"x_max":1732,"o":"m 504 831 q 288 733 367 831 q 208 486 208 635 q 288 240 208 338 q 504 142 367 142 l 790 142 l 790 0 l 504 0 q 273 66 374 0 q 119 242 172 132 q 67 486 67 351 q 119 731 67 621 q 273 906 172 840 q 504 972 374 972 l 790 972 l 790 831 l 504 831 m 1433 415 l 1285 415 l 1285 557 l 1433 557 q 1543 597 1497 557 q 1589 694 1589 638 q 1543 790 1589 750 q 1433 831 1497 831 l 969 831 l 969 972 l 1453 972 q 1649 890 1568 972 q 1731 694 1731 808 q 1597 486 1731 543 q 1731 278 1731 429 q 1649 82 1731 164 q 1453 0 1568 0 l 969 0 l 969 415 l 329 415 l 329 557 l 1111 557 l 1111 142 l 1433 142 q 1543 182 1497 142 q 1589 278 1589 222 q 1543 375 1589 335 q 1433 415 1497 415 z "},"":{"ha":1590,"x_min":67,"x_max":1479,"o":"m 504 831 q 378 803 435 831 q 285 730 322 776 q 228 621 247 683 q 208 486 208 558 q 288 240 208 338 q 504 142 367 142 l 790 142 l 790 0 l 504 0 q 323 38 406 0 q 185 142 240 76 q 98 297 129 208 q 67 486 67 386 q 119 731 67 621 q 273 906 172 840 q 504 972 374 972 l 790 972 l 790 831 l 504 831 m 1338 972 l 1479 972 l 1479 0 l 1338 0 l 1338 415 l 329 415 l 329 557 l 1338 557 l 1338 972 z "},"":{"ha":1606,"x_min":111,"x_max":1524,"o":"m 1063 557 l 1524 557 l 1524 415 l 1063 415 l 1063 557 m 940 831 l 940 486 l 799 486 l 799 972 l 1524 972 l 1524 831 l 940 831 m 940 486 q 1019 240 940 338 q 1236 142 1099 142 l 1524 142 l 1524 0 l 1236 0 q 1005 66 1106 0 q 851 242 904 132 q 799 486 799 351 l 940 486 m 111 0 l 111 972 l 253 972 l 253 557 l 678 557 l 678 415 l 253 415 l 253 0 l 111 0 z "},"":{"ha":1929,"x_min":63,"x_max":1867,"o":"m 1033 828 q 1190 934 1101 896 q 1379 972 1279 972 q 1623 907 1511 972 q 1800 730 1735 842 q 1865 486 1865 618 q 1800 242 1865 354 q 1623 65 1735 131 q 1379 0 1511 0 q 1192 38 1281 0 q 1036 143 1103 75 l 1136 243 q 1379 142 1236 142 q 1623 242 1522 142 q 1724 486 1724 343 q 1623 730 1724 629 q 1379 831 1522 831 q 1136 731 1238 831 q 1067 620 1090 685 q 1033 490 1043 556 q 1009 358 1024 425 q 954 222 994 292 q 843 100 914 153 q 549 0 713 0 q 360 38 450 0 q 204 142 269 76 q 101 297 139 207 q 63 486 63 388 q 128 730 63 618 q 305 907 193 842 q 549 972 417 972 q 736 935 647 972 q 892 829 825 897 l 792 729 q 549 831 692 831 q 305 730 406 831 q 204 486 204 629 q 305 242 204 343 q 549 142 406 142 q 754 210 663 142 q 879 415 847 279 l 549 415 l 549 557 l 906 557 q 928 650 915 610 q 967 739 940 690 q 1033 828 994 788 z "},"":{"ha":1929,"x_min":61,"x_max":1867,"o":"m 1033 828 q 1190 934 1101 896 q 1379 972 1279 972 q 1623 907 1511 972 q 1800 730 1735 842 q 1865 486 1865 618 q 1800 242 1865 354 q 1623 65 1735 131 q 1379 0 1511 0 q 1192 38 1281 0 q 1036 143 1103 75 l 1136 243 q 1379 142 1236 142 q 1623 242 1522 142 q 1724 486 1724 343 q 1623 730 1724 629 q 1379 831 1522 831 q 1136 731 1238 831 q 1067 620 1090 685 q 1033 490 1043 556 q 1009 358 1024 425 q 954 222 994 292 q 843 100 914 153 q 549 0 713 0 q 305 65 417 0 q 128 242 193 131 q 63 486 63 354 q 101 675 63 585 q 204 831 139 765 q 360 934 269 896 q 549 972 450 972 q 736 935 647 972 q 892 829 825 897 l 792 729 q 549 831 692 831 q 305 730 406 831 q 204 486 204 629 q 305 242 204 343 q 549 142 406 142 q 754 210 663 142 q 842 313 811 253 q 885 436 874 372 q 906 565 896 500 q 947 700 917 629 q 1033 828 978 771 z "},"":{"ha":1744,"x_min":67,"x_max":1686,"o":"m 1686 831 l 504 831 q 288 733 367 831 q 208 486 208 635 q 288 240 208 338 q 504 142 367 142 l 790 142 l 790 0 l 504 0 q 273 66 374 0 q 119 242 172 132 q 67 486 67 351 q 119 731 67 621 q 273 906 172 840 q 504 972 374 972 l 1686 972 l 1686 831 m 329 557 l 790 557 l 790 415 l 329 415 l 329 557 m 1686 415 l 1232 415 q 1140 378 1178 415 q 1103 286 1103 340 l 1103 0 l 961 0 l 961 286 q 1040 478 961 399 q 1232 557 1119 557 l 1686 557 l 1686 415 z "},"":{"ha":1817,"x_min":67,"x_max":1724,"o":"m 329 557 l 790 557 l 790 415 l 329 415 l 329 557 m 1425 415 l 1103 415 l 1103 0 l 961 0 l 961 557 l 1425 557 q 1535 597 1489 557 q 1581 694 1581 638 q 1535 790 1581 750 q 1425 831 1489 831 l 504 831 q 288 733 367 831 q 208 486 208 635 q 288 240 208 338 q 504 142 367 142 l 790 142 l 790 0 l 504 0 q 273 66 374 0 q 119 242 172 132 q 67 486 67 351 q 119 731 67 621 q 273 906 172 840 q 504 972 374 972 l 1444 972 q 1641 890 1560 972 q 1722 694 1722 808 q 1589 486 1722 543 q 1722 278 1722 429 l 1722 0 l 1581 0 l 1581 278 q 1535 375 1581 335 q 1425 415 1489 415 z "},"":{"ha":1875,"x_min":110,"x_max":1808,"o":"m 1338 415 q 1144 473 1221 415 q 1051 613 1067 531 q 1053 776 1035 694 q 1143 915 1071 857 q 1318 972 1215 972 l 1803 972 l 1803 831 l 1338 831 q 1261 815 1294 831 q 1210 776 1228 800 q 1185 724 1193 753 q 1185 665 1178 694 q 1210 611 1193 635 q 1261 572 1228 588 q 1338 557 1294 557 l 1506 557 q 1698 499 1621 557 q 1792 360 1775 442 q 1790 197 1808 278 q 1699 58 1772 115 q 1525 0 1626 0 l 731 0 l 731 278 q 685 375 731 335 q 575 415 639 415 l 374 415 l 374 557 l 575 557 q 685 597 639 557 q 731 694 731 638 q 685 790 731 750 q 575 831 639 831 l 253 831 l 253 0 l 111 0 l 111 972 l 594 972 q 791 890 710 972 q 872 694 872 808 q 739 486 872 543 q 872 278 872 429 l 872 142 l 1506 142 q 1581 157 1547 142 q 1631 196 1614 172 q 1657 249 1649 219 q 1657 308 1665 278 q 1631 361 1649 338 q 1581 400 1614 385 q 1506 415 1547 415 l 1338 415 z "},"":{"ha":1878,"x_min":67,"x_max":1785,"o":"m 539 557 q 796 428 718 557 q 824 199 860 324 q 679 25 789 76 q 558 0 625 0 l 74 0 l 74 142 l 539 142 q 614 157 581 142 q 665 196 647 172 q 690 249 682 219 q 690 308 699 278 q 665 361 682 338 q 614 400 647 385 q 539 415 581 415 l 371 415 q 177 473 254 415 q 84 613 100 531 q 86 776 68 694 q 176 915 104 857 q 351 972 249 972 l 1506 972 q 1701 890 1619 972 q 1783 694 1783 808 q 1650 486 1783 543 q 1783 278 1783 429 l 1783 0 l 1642 0 l 1642 278 q 1596 375 1642 335 q 1486 415 1550 415 l 1164 415 l 1164 0 l 1022 0 l 1022 557 l 1486 557 q 1564 575 1528 557 q 1621 625 1600 593 q 1642 694 1642 657 q 1596 790 1642 750 q 1486 831 1550 831 l 371 831 q 294 815 328 831 q 244 776 261 800 q 219 724 226 753 q 219 665 211 694 q 244 611 226 635 q 294 572 261 588 q 371 557 328 557 l 539 557 z "},"":{"ha":1832,"x_min":67,"x_max":1785,"o":"m 539 557 q 796 428 718 557 q 825 199 860 324 q 679 25 790 75 q 558 0 625 0 l 74 0 l 74 142 l 539 142 q 615 157 581 142 q 665 196 649 172 q 690 249 682 219 q 690 308 699 278 q 665 361 682 338 q 615 400 649 385 q 539 415 581 415 l 371 415 q 177 473 254 415 q 84 613 100 531 q 86 776 68 694 q 176 915 104 857 q 351 972 249 972 l 1506 972 q 1701 890 1619 972 q 1783 694 1783 808 q 1697 492 1783 569 q 1486 415 1611 415 l 1164 415 l 1164 0 l 1022 0 l 1022 557 l 1486 557 q 1564 575 1528 557 q 1621 625 1600 593 q 1642 694 1642 657 q 1596 790 1642 750 q 1486 831 1550 831 l 371 831 q 294 815 328 831 q 244 776 261 800 q 219 724 226 753 q 219 665 211 694 q 244 611 226 635 q 294 572 261 588 q 371 557 328 557 l 539 557 z "},"":{"ha":1319,"x_min":15,"x_max":1304,"o":"m 869 0 l 869 710 l 1011 710 l 1011 0 l 869 0 m 1303 831 l 15 831 l 15 972 l 1303 972 l 1303 831 m 307 0 l 307 710 l 449 710 l 449 0 l 307 0 z "},"":{"ha":1481,"x_min":67,"x_max":1457,"o":"m 1022 0 l 1022 710 l 1164 710 l 1164 0 l 1022 0 m 539 557 q 731 499 654 557 q 825 360 808 442 q 824 197 842 278 q 733 58 806 115 q 558 0 660 0 l 74 0 l 74 142 l 539 142 q 614 157 581 142 q 665 196 647 172 q 690 249 682 219 q 690 308 699 278 q 665 361 682 338 q 614 400 647 385 q 539 415 581 415 l 371 415 q 177 473 254 415 q 84 613 100 531 q 86 776 68 694 q 176 915 104 857 q 351 972 249 972 l 1456 972 l 1456 831 l 371 831 q 294 815 328 831 q 244 776 261 800 q 219 724 226 753 q 219 665 211 694 q 244 611 226 635 q 294 572 261 588 q 371 557 328 557 l 539 557 z "},"":{"ha":1596,"x_min":24,"x_max":1513,"o":"m 315 0 l 315 710 l 457 710 l 457 0 l 315 0 m 1065 415 l 1065 557 l 1214 557 q 1324 597 1278 557 q 1369 694 1369 638 q 1324 790 1369 750 q 1214 831 1278 831 l 24 831 l 24 972 l 1233 972 q 1429 890 1347 972 q 1511 694 1511 808 q 1378 486 1511 543 q 1511 278 1511 429 q 1429 82 1511 164 q 1233 0 1347 0 l 750 0 l 750 557 l 892 557 l 892 142 l 1214 142 q 1292 160 1256 142 q 1349 210 1328 178 q 1369 278 1369 242 q 1324 375 1369 335 q 1214 415 1278 415 l 1065 415 z "},"":{"ha":1621,"x_min":24,"x_max":1556,"o":"m 315 0 l 315 710 l 457 710 l 457 0 l 315 0 m 24 972 l 1072 972 q 1282 931 1188 972 q 1434 820 1376 889 q 1523 665 1492 751 q 1554 486 1554 578 q 1523 308 1554 394 q 1434 152 1492 221 q 1282 42 1376 83 q 1072 0 1188 0 l 750 0 l 750 557 l 892 557 l 892 142 l 1100 142 q 1236 172 1175 142 q 1335 249 1297 201 q 1392 359 1372 297 q 1413 486 1413 421 q 1392 613 1413 551 q 1335 723 1372 675 q 1236 801 1297 771 q 1100 831 1175 831 l 24 831 l 24 972 z "},"":{"ha":1804,"x_min":67,"x_max":1756,"o":"m 1265 831 q 1190 815 1224 831 q 1140 776 1157 800 q 1114 722 1122 751 q 1114 664 1106 693 q 1140 610 1122 635 q 1190 572 1157 586 q 1265 557 1224 557 l 1433 557 q 1690 428 1613 557 q 1719 200 1754 324 q 1575 25 1685 76 q 1453 0 1519 0 l 506 0 q 273 65 374 0 q 119 241 172 131 q 67 486 67 351 q 98 675 67 586 q 185 830 129 764 q 324 934 240 896 q 506 972 407 972 l 790 972 l 790 831 l 506 831 q 344 783 413 831 q 242 659 275 736 q 208 486 208 582 q 288 240 208 338 q 506 142 367 142 l 1433 142 q 1501 153 1471 142 q 1550 184 1532 165 q 1578 228 1568 203 q 1589 278 1589 253 q 1578 328 1589 304 q 1550 372 1568 353 q 1501 403 1532 392 q 1433 415 1471 415 l 1265 415 q 1008 543 1086 415 q 981 775 944 649 q 1126 947 1017 899 q 1246 972 1181 972 l 1731 972 l 1731 831 l 1265 831 m 790 415 l 331 415 l 331 557 l 790 557 l 790 415 z "}}}
